<?xml version="1.0" encoding="utf-8"?>
<!-- Generator: Adobe Illustrator 22.0.1, SVG Export Plug-In . SVG Version: 6.00 Build 0)  -->
<svg version="1.1" id="图层_1" xmlns="http://www.w3.org/2000/svg" xmlns:xlink="http://www.w3.org/1999/xlink" x="0px" y="0px"
	 viewBox="0 0 14 14" style="enable-background:new 0 0 14 14;" xml:space="preserve">
<style type="text/css">
	.st0{fill:#4ACA6D;}
	.st1{fill:#FFFFFF;}
</style>
<title>黑勾 copy</title>
<desc>Created with Sketch.</desc>
<g id="Page-1">
	<g id="分类页出现兴趣标签提示" transform="translate(-595.000000, -719.000000)">
		<g id="黑勾-copy" transform="translate(595.000000, 719.000000)">
			<g id="二级2等分Tab_x2F_居中选中态">
				<g id="Combined-Shape">
					<path class="st0" d="M7,0L7,0c3.9,0,7,3.1,7,7l0,0c0,3.9-3.1,7-7,7l0,0c-3.9,0-7-3.1-7-7l0,0C0,3.1,3.1,0,7,0z"/>
				</g>
			</g>
			<g id="Path-2">
				<path class="st1" d="M6.7,9.8L6.7,9.8c-0.1,0-0.3-0.1-0.4-0.2l-2-2.1C4.1,7.3,4.1,7,4.3,6.8c0.2-0.2,0.5-0.2,0.7,0l1.7,1.8
					l3.2-3.4c0.2-0.2,0.5-0.2,0.7,0c0.2,0.2,0.2,0.5,0,0.7L7.1,9.7C7,9.8,6.8,9.8,6.7,9.8z"/>
			</g>
		</g>
	</g>
</g>
</svg>
