<?xml version="1.0" encoding="utf-8"?>
<!-- Generator: Adobe Illustrator 22.0.1, SVG Export Plug-In . SVG Version: 6.00 Build 0)  -->
<svg version="1.1" id="图层_1" xmlns="http://www.w3.org/2000/svg" xmlns:xlink="http://www.w3.org/1999/xlink" x="0px" y="0px"
	 viewBox="0 0 19 19" style="enable-background:new 0 0 19 19;" xml:space="preserve">
<style type="text/css">
	.st0{fill:none;}
	.st1{fill:#4ACA6D;}
</style>
<title>Group 7</title>
<desc>Created with Sketch.</desc>
<g id="Page-1">
	<g id="首页轮播卡片_x2F_未登录" transform="translate(-1120.000000, -469.000000)">
		<g id="Group-7" transform="translate(1117.000000, 467.000000)">
			<g id="Rectangle-2">
				<rect class="st0" width="24" height="24"/>
			</g>
			<g id="Rectangle-17">
				<path class="st1" d="M19.6,21H5.4C4.1,21,3,19.9,3,18.6V4.4C3,3.1,4.1,2,5.4,2H13c0.6,0,1,0.4,1,1s-0.4,1-1,1H5.4
					C5.2,4,5,4.2,5,4.4v14.3C5,18.8,5.2,19,5.4,19h14.3c0.2,0,0.4-0.2,0.4-0.4V11c0-0.6,0.4-1,1-1s1,0.4,1,1v7.7
					C22,19.9,20.9,21,19.6,21z"/>
			</g>
			<g id="Path-4">
				<path class="st1" d="M11,14c-0.3,0-0.5-0.1-0.7-0.3c-0.4-0.4-0.4-1,0-1.4l9-9c0.4-0.4,1-0.4,1.4,0s0.4,1,0,1.4l-9,9
					C11.5,13.9,11.3,14,11,14z"/>
			</g>
		</g>
	</g>
</g>
</svg>
