<?xml version="1.0" encoding="utf-8"?>
<!-- Generator: Adobe Illustrator 22.0.1, SVG Export Plug-In . SVG Version: 6.00 Build 0)  -->
<svg version="1.1" id="图层_1" xmlns="http://www.w3.org/2000/svg" xmlns:xlink="http://www.w3.org/1999/xlink" x="0px" y="0px"
	 viewBox="0 0 22 24" style="enable-background:new 0 0 22 24;" xml:space="preserve">
<style type="text/css">
	.st0{fill:none;}
	.st1{fill:#333333;}
</style>
<title>Group 8</title>
<desc>Created with Sketch.</desc>
<g id="Page-1">
	<g id="首页轮播卡片_x2F_未登录" transform="translate(-997.000000, -468.000000)">
		<g id="Group-8" transform="translate(996.000000, 468.000000)">
			<g id="Rectangle-16">
				<rect class="st0" width="24" height="24"/>
			</g>
			<g id="Group-3-Copy" transform="translate(1.000000, 0.000000)">
				<g id="Combined-Shape">
					<path class="st1" d="M10.9,23c-0.7,0-1.5-0.3-2.1-0.8l-1.5-1.4C3,19.3,0,15.3,0,10.7C0,4.8,4.9,0,11,0C17,0,22,4.8,22,10.7
						c0,4.7-3.1,8.8-7.6,10.2h0L13,22.2C12.5,22.8,11.7,23,10.9,23z M11,2c-5,0-9,3.9-9,8.7c0,3.7,2.4,7,6,8.2l0,0l0.4,0.1l1.8,1.7
						c0.4,0.4,1,0.4,1.4,0l1.6-1.6l0.5-0.1c3.7-1.2,6.2-4.5,6.2-8.3C20,5.9,15.9,2,11,2z"/>
				</g>
				<g id="Oval-10">
					<path class="st1" d="M11.2,14.1c-0.6,0-1-0.4-1-1c0-1.8,1.4-2.4,2.2-2.8c0.2-0.1,0.5-0.2,0.6-0.3c0.2-0.2,0.2-0.5,0.2-0.8
						c0-0.9-0.9-1.7-2-1.7s-2,0.7-2,1.7c0,0.6-0.4,1-1,1s-1-0.4-1-1c0-2,1.8-3.7,4-3.7c2.2,0,4,1.6,4,3.7c0,0.8-0.3,1.5-0.7,2.1
						c-0.3,0.4-0.8,0.6-1.2,0.8c-0.8,0.4-1.1,0.6-1.1,1C12.2,13.7,11.8,14.1,11.2,14.1z"/>
				</g>
				<g id="Oval-11">
					<ellipse class="st1" cx="11.3" cy="15.9" rx="1" ry="1"/>
				</g>
			</g>
		</g>
	</g>
</g>
</svg>
