<?xml version="1.0" encoding="utf-8"?>
<!-- Generator: Adobe Illustrator 22.0.1, SVG Export Plug-In . SVG Version: 6.00 Build 0)  -->
<svg version="1.1" id="图层_1" xmlns="http://www.w3.org/2000/svg" xmlns:xlink="http://www.w3.org/1999/xlink" x="0px" y="0px"
	 viewBox="0 0 26 22" style="enable-background:new 0 0 26 22;" xml:space="preserve">
<style type="text/css">
	.st0{fill:#666666;}
</style>
<title>分组</title>
<desc>Created with Sketch.</desc>
<path class="st0" d="M24.8,1.2c-0.3-0.3-0.7-0.3-0.8-0.3h-6.7c-1.4,0-3.1,0.6-4.3,1.7c-1.2-1.1-3-1.8-4.3-1.8H2
	c-0.2,0-0.5,0-0.8,0.3C0.8,1.5,0.8,1.9,0.8,2v16.6c0,0.5,0.4,1,1,1h7.1c1.2,0,2.6,0.6,3.3,1.4c0.1,0.2,0.4,0.4,0.8,0.4
	c0.1,0,0.1,0,0.2,0c0.1,0,0.1,0,0.2,0c0.3,0,0.6-0.2,0.7-0.4c0.6-0.8,1.9-1.4,3.1-1.4h7.1c0.5,0,1-0.4,1-1V2.1
	C25.2,1.9,25.2,1.5,24.8,1.2z M12,18.5c-0.9-0.5-2.1-0.8-3.1-0.8H2.8V2.8h5.9c1.3,0,2.7,0.7,3.3,1.5V18.5z M14,4.4
	c0.6-0.8,2.1-1.5,3.3-1.5h5.9v14.9h-6.1c-1.1,0-2.2,0.3-3.1,0.8V4.4z"/>
</svg>
