<?xml version="1.0" encoding="utf-8"?>
<!-- Generator: Adobe Illustrator 22.0.1, SVG Export Plug-In . SVG Version: 6.00 Build 0)  -->
<svg version="1.1" id="图层_1" xmlns="http://www.w3.org/2000/svg" xmlns:xlink="http://www.w3.org/1999/xlink" x="0px" y="0px"
	 viewBox="0 0 22 23" style="enable-background:new 0 0 22 23;" xml:space="preserve">
<style type="text/css">
	.st0{fill:#666666;}
</style>
<title>分组 5</title>
<desc>Created with Sketch.</desc>
<g>
	<path class="st0" d="M21.8,10.6c0-0.7-0.3-1.4-0.9-1.9l-7.5-7c-0.5-0.5-1.2-0.8-1.9-0.7C10.7,1,10,1.3,9.5,1.8L1,11
		c-1,1.1-1,2.8,0.1,3.8L7.7,21H3c-0.6,0-1,0.4-1,1s0.4,1,1,1h17c0.6,0,1-0.4,1-1s-0.4-1-1-1h-6.9l7.9-8.5
		C21.5,12,21.8,11.3,21.8,10.6z M19.6,11.2L11,20.4c-0.3,0.3-0.7,0.3-1,0l-7.5-7c-0.3-0.3-0.3-0.7,0-1L11,3.2C11.1,3,11.3,3,11.5,3
		c0,0,0,0,0,0C11.7,3,11.9,3,12,3.2l7.5,7c0.1,0.1,0.2,0.3,0.2,0.5C19.8,10.9,19.7,11,19.6,11.2z"/>
	<path class="st0" d="M12.1,4.9c-0.2,0-0.5,0-0.7,0.2c-0.2,0.2-0.3,0.4-0.3,0.7l-0.3,5.8c0,0.1-0.1,0.2-0.2,0.2l-5.8,0.3
		c-0.5,0-0.9,0.5-0.9,1c0,0.5,0.4,0.9,0.9,0.9c0,0,0,0,0.1,0l5.8-0.3c0.5,0,1-0.2,1.3-0.6v0c0.3-0.3,0.6-0.8,0.6-1.3L13,5.9
		C13,5.4,12.7,5,12.1,4.9z"/>
</g>
</svg>
