<?xml version="1.0" encoding="utf-8"?>
<!-- Generator: Adobe Illustrator 22.0.1, SVG Export Plug-In . SVG Version: 6.00 Build 0)  -->
<svg version="1.1" id="图层_1" xmlns="http://www.w3.org/2000/svg" xmlns:xlink="http://www.w3.org/1999/xlink" x="0px" y="0px"
	 viewBox="0 0 22 22" style="enable-background:new 0 0 22 22;" xml:space="preserve">
<style type="text/css">
	.st0{fill:#666666;}
</style>
<title>Fill 1</title>
<desc>Created with Sketch.</desc>
<g>
	<path class="st0" d="M11,14.4c-0.8,0-1.5,0.8-1.5,1.6c0,0.8,0.7,1.6,1.5,1.6s1.5-0.7,1.5-1.6C12.5,15.2,11.8,14.4,11,14.4z"/>
	<path class="st0" d="M11,4.5C8.9,4.5,7.5,6,7.5,8.2h2c0-1.1,0.6-1.7,1.5-1.7c0.9,0,1.5,0.6,1.5,1.5c0,0.9-0.7,1.7-1.8,2.1L10,10.3
		V13h2v-1.3c1.5-0.7,2.5-2.1,2.5-3.7C14.5,6,13,4.5,11,4.5z"/>
	<path class="st0" d="M11,0C4.9,0,0,4.9,0,11s4.9,11,11,11c6.1,0,11-4.9,11-11S17.1,0,11,0z M11,20c-5,0-9-4-9-9s4-9,9-9s9,4,9,9
		S16,20,11,20z"/>
</g>
</svg>
