<?xml version="1.0" encoding="UTF-8"?>
<svg width="14px" height="14px" viewBox="0 0 14 14" version="1.1" xmlns="http://www.w3.org/2000/svg" xmlns:xlink="http://www.w3.org/1999/xlink">
    <!-- Generator: Sketch 61.1 (89650) - https://sketch.com -->
    <title>Fill 1@2x</title>
    <desc>Created with Sketch.</desc>
    <defs>
        <linearGradient x1="0%" y1="50%" x2="99.0108781%" y2="50%" id="linearGradient-1">
            <stop stop-color="#33CC75" offset="0%"></stop>
            <stop stop-color="#29CFB3" offset="100%"></stop>
        </linearGradient>
    </defs>
    <g id="页面-1" stroke="none" stroke-width="1" fill="none" fill-rule="evenodd">
        <g id="个人中心-上传视频" transform="translate(-852.000000, -375.000000)" fill="url(#linearGradient-1)">
            <g id="编组" transform="translate(852.000000, 375.000000)">
                <path d="M3.59116092,6.16514943 L10.196023,6.16514943 C10.5243793,6.15444828 10.7817701,5.87967816 10.771069,5.5514023 C10.7666437,5.41349425 10.7143448,5.28145977 10.6232644,5.17790805 L8.44505747,2.89655172 C8.22974713,2.67102299 7.87242529,2.66281609 7.64689655,2.87804598 C7.42144828,3.09335632 7.41316092,3.45067816 7.62847126,3.6762069 L8.92701149,5.03637931 L3.59116092,5.03637931 C3.27937931,5.03637931 3.02665517,5.28918391 3.02673561,5.60088506 C3.02673561,5.91266667 3.27945977,6.1653908 3.59116092,6.1653908 L3.59116092,6.16514943 Z M10.2150115,7.83066667 L3.61014943,7.83066667 C3.2817931,7.84144828 3.0244023,8.11629885 3.03510345,8.44465517 C3.0396092,8.58248276 3.09182759,8.71443678 3.18290805,8.81798851 L5.36111494,11.0995057 C5.57425287,11.327046 5.93149425,11.3387931 6.15903448,11.1256552 C6.38657471,10.9125977 6.39832184,10.5552759 6.18518391,10.3277356 C6.18268966,10.3250805 6.18027586,10.3225057 6.17770115,10.319931 L4.87908046,8.96016092 L10.2150115,8.96016092 C10.526954,8.96016092 10.7797586,8.70735632 10.7797586,8.39541379 C10.7797586,8.08355172 10.526954,7.83066667 10.2150115,7.83066667 L10.2150115,7.83066667 Z M7,12.8709885 C3.75755172,12.8709885 1.12901149,10.2424483 1.12901149,7 C1.12901149,3.75755172 3.75755172,1.12901149 7,1.12901149 C10.2424483,1.12901149 12.8709885,3.75755172 12.8709885,7 C12.8673678,10.2409195 10.2409195,12.8673678 7,12.8709885 L7,12.8709885 Z M7,0 C3.13398851,0 0,3.13398851 0,7 C0,10.8660115 3.13398851,14 7,14 C10.8660115,14 14,10.8660115 14,7 C13.9955747,3.13583908 10.8642414,0.00442528736 7,0 L7,0 Z" id="Fill-1"></path>
            </g>
        </g>
    </g>
</svg>