<?xml version="1.0" encoding="utf-8"?>
<!-- Generator: Adobe Illustrator 22.0.1, SVG Export Plug-In . SVG Version: 6.00 Build 0)  -->
<svg version="1.1" id="图层_1" xmlns="http://www.w3.org/2000/svg" xmlns:xlink="http://www.w3.org/1999/xlink" x="0px" y="0px"
	 viewBox="0 0 35 33" style="enable-background:new 0 0 35 33;" xml:space="preserve">
<style type="text/css">
	.st0{fill:url(#SVGID_1_);}
	.st1{fill:url(#SVGID_2_);}
</style>
<title>上传 (1)</title>
<desc>Created with Sketch.</desc>
<g>
	<linearGradient id="SVGID_1_" gradientUnits="userSpaceOnUse" x1="9.1466" y1="12.8994" x2="26.7716" y2="12.8994">
		<stop  offset="0" style="stop-color:#33CC75"/>
		<stop  offset="1" style="stop-color:#29CFB3"/>
	</linearGradient>
	<path class="st0" d="M11.3,10l5.5-5.4v19.6c0,0.7,0.6,1.3,1.3,1.3c0.7,0,1.3-0.6,1.3-1.3V4.6l5.5,5.4c0.5,0.5,1.3,0.5,1.8,0
		c0.5-0.5,0.5-1.3,0-1.8l-7.6-7.5c-0.1-0.1-0.2-0.1-0.3-0.2c0,0-0.1-0.1-0.1-0.1c-0.1-0.1-0.3-0.1-0.5-0.1l0,0l0,0l0,0l0,0
		c-0.2,0-0.3,0-0.5,0.1c-0.1,0-0.1,0.1-0.2,0.1c-0.1,0.1-0.2,0.1-0.3,0.2L9.5,8.2C9,8.7,9,9.5,9.5,10C10,10.5,10.8,10.5,11.3,10z"/>
	<linearGradient id="SVGID_2_" gradientUnits="userSpaceOnUse" x1="0.7697" y1="26.4843" x2="33.946" y2="26.4843">
		<stop  offset="0" style="stop-color:#33CC75"/>
		<stop  offset="1" style="stop-color:#29CFB3"/>
	</linearGradient>
	<path class="st1" d="M33,20.4c-0.7,0-1.3,0.6-1.3,1.2v7.2c0,0.7-0.6,1.2-1.3,1.2H4.6c-0.7,0-1.3-0.5-1.3-1.2v-7.2
		c0-0.7-0.6-1.2-1.3-1.2c-0.7,0-1.3,0.6-1.3,1.2v8.5c0,1.3,1.2,2.4,2.6,2.4h28.4c1.4,0,2.6-1.1,2.6-2.4v-8.5
		C34.3,21,33.7,20.4,33,20.4z"/>
</g>
</svg>
