<svg height="40" viewBox="0 0 1024 1024" width="40" xmlns="http://www.w3.org/2000/svg"><path d="m584.248889 824.263111a185.856 185.856 0 0 0 40.334222 57.372445l-396.629333-.512c-64.853334 0-114.176-49.123556-114.176-113.692445v-539.960889c0-64.625778 49.322666-113.692444 114.176-113.692444h507.676444c59.676444 0 109.141333 37.347556 116.707556 93.582222.654222 4.920889.995556 9.955556.995555 15.189333v374.784c-24.547556 0-55.808 8.647111-86.755555 21.617778-84.849778 7.964444-171.121778 54.528-198.456889 70.627556-7.992889 4.721778-16.782222 6.968889-25.571556 6.968889a51.712 51.712 0 0 1 -39.452444-18.432c-103.480889-121.571556-254.976-160.768-335.104-173.397334v259.925334c0 27.932444 31.601778 59.619556 59.562667 59.619555zm161.450667-653.653333h-518.144c-27.960889 0-59.562667 24.007111-59.562667 51.939555v219.761778c85.333333 11.861333 255.516444 52.280889 376.604444 189.923556 45.937778-26.140444 155.306667-61.724444 251.847111-63.715556v-333.852444c0-27.932444-22.784-64.085333-50.744888-64.085334zm-179.939556 161.450666a39.992889 39.992889 0 1 0 39.992889 39.964445c0-21.987556-17.92-39.964444-39.992889-39.964445zm0 131.128889a91.278222 91.278222 0 0 1 -91.192889-91.164444 91.249778 91.249778 0 0 1 91.192889-91.107556 91.249778 91.249778 0 0 1 91.192889 91.107556 91.278222 91.278222 0 0 1 -91.192889 91.164444z" fill="#d8d8d8"/><path d="m768 768v-85.333333a28.444444 28.444444 0 0 1 56.888889 0v85.333333h85.333333a28.444444 28.444444 0 0 1 0 56.888889h-85.333333v85.333333a28.444444 28.444444 0 0 1 -56.888889 0v-85.333333h-85.333333a28.444444 28.444444 0 0 1 0-56.888889z" fill="#d8d8d8"/></svg>