<?xml version="1.0" standalone="no"?><!DOCTYPE svg PUBLIC "-//W3C//DTD SVG 1.1//EN" "http://www.w3.org/Graphics/SVG/1.1/DTD/svg11.dtd"><svg t="1585044677446" class="icon" viewBox="0 0 1024 1024" version="1.1" xmlns="http://www.w3.org/2000/svg" p-id="8624" xmlns:xlink="http://www.w3.org/1999/xlink" width="40" height="40"><defs><style type="text/css"></style></defs><path d="M580.209778 824.888889a167.082667 167.082667 0 0 0 38.001778 55.552H233.756444a117.361778 117.361778 0 0 1-117.248-117.248V220.615111C116.508444 155.960889 162.872889 113.777778 227.555556 113.777778h521.016888C813.198222 113.777778 853.333333 162.901333 853.333333 227.555556v386.190222a222.72 222.72 0 0 0-56.888889-14.677334V227.555556c0-27.960889-19.911111-57.628444-47.872-57.628445H233.756444C205.795556 169.927111 170.666667 199.594667 170.666667 227.555556v512c0 27.960889 28.928 85.333333 56.888889 85.333333h352.654222zM426.666667 570.709333l170.666666-87.296-170.666666-87.239111v174.535111z m27.107555-232.049777L625.777778 443.448889c14.222222 8.248889 28.444444 23.608889 28.444444 40.049778 0 16.497778-14.222222 31.800889-28.444444 39.992889l-172.003556 104.789333c-7.111111 4.096-15.104 6.144-23.096889 6.144-8.049778 0-25.315556-4.465778-32.455111-8.618667-14.449778-8.334222-28.444444-28.444444-28.444444-37.546666v-209.578667c0-16.440889 23.523556-31.800889 37.831111-40.021333a46.364444 46.364444 0 0 1 46.165333 0.028444z" p-id="8625" fill="#999999"></path><path d="M768 768v-85.333333a28.444444 28.444444 0 0 1 56.888889 0v85.333333h85.333333a28.444444 28.444444 0 0 1 0 56.888889h-85.333333v85.333333a28.444444 28.444444 0 0 1-56.888889 0v-85.333333h-85.333333a28.444444 28.444444 0 0 1 0-56.888889h85.333333z" p-id="8626" fill="#999999"></path></svg>