<?xml version="1.0" encoding="utf-8"?>
<!-- Generator: Adobe Illustrator 22.0.1, SVG Export Plug-In . SVG Version: 6.00 Build 0)  -->
<svg version="1.1" id="图层_1" xmlns="http://www.w3.org/2000/svg" xmlns:xlink="http://www.w3.org/1999/xlink" x="0px" y="0px"
	 viewBox="0 0 18 16" style="enable-background:new 0 0 18 16;" xml:space="preserve">
<style type="text/css">
	.st0{fill:#666666;}
</style>
<title>采纳率</title>
<desc>Created with Sketch.</desc>
<g>
	<path class="st0" d="M10.8,7.1L8.6,9.3L7.4,8.1c-0.2-0.2-0.6-0.2-0.9,0C6.3,8.4,6.3,8.8,6.5,9l1.2,1.2c0.5,0.5,1.2,0.5,1.7,0
		L11.6,8c0.2-0.2,0.2-0.6,0-0.9C11.4,6.9,11,6.9,10.8,7.1z"/>
	<path class="st0" d="M15.8,4.9l-3.5-0.8c0,0-0.1,0-0.1-0.1l-1.8-3.1C10.2,0.7,10,0.5,9.8,0.3C9-0.1,8,0.1,7.6,0.9L5.7,4
		c0,0-0.1,0.1-0.1,0.1L2.1,4.9C1.8,4.9,1.6,5.1,1.4,5.2C0.7,5.8,0.6,6.8,1.2,7.5l2.4,2.7c0,0,0,0.1,0,0.1l-0.3,3.6
		c0,0.3,0,0.5,0.1,0.8c0.4,0.8,1.3,1.2,2.1,0.8l3.3-1.4c0,0,0.1,0,0.1,0l3.3,1.4c0.2,0.1,0.5,0.1,0.8,0.1c0.9-0.1,1.5-0.9,1.4-1.7
		l-0.3-3.6c0,0,0-0.1,0-0.1l2.4-2.7C16.8,7.3,17,7,17,6.8C17.2,5.9,16.7,5.1,15.8,4.9z M15.8,6.5c0,0.1,0,0.1-0.1,0.2l-2.4,2.7
		c-0.3,0.3-0.4,0.7-0.3,1l0.3,3.6c0,0.2-0.1,0.4-0.4,0.4c-0.1,0-0.1,0-0.2,0L9.5,13c-0.3-0.1-0.7-0.1-1.1,0l-3.3,1.4
		c-0.2,0.1-0.4,0-0.5-0.2c0-0.1,0-0.1,0-0.2l0.3-3.6c0-0.4-0.1-0.7-0.3-1L2.1,6.7C2,6.5,2,6.3,2.2,6.1c0,0,0.1-0.1,0.2-0.1l3.5-0.8
		C6.2,5.2,6.6,5,6.7,4.6l1.8-3.1c0.1-0.2,0.3-0.2,0.5-0.1c0.1,0,0.1,0.1,0.1,0.1l1.8,3.1C11.3,5,11.6,5.2,12,5.3l3.5,0.8
		C15.7,6.1,15.9,6.3,15.8,6.5z"/>
</g>
</svg>
