<?xml version="1.0" encoding="utf-8"?>
<!-- Generator: Adobe Illustrator 22.0.1, SVG Export Plug-In . SVG Version: 6.00 Build 0)  -->
<svg version="1.1" id="图层_1" xmlns="http://www.w3.org/2000/svg" xmlns:xlink="http://www.w3.org/1999/xlink" x="0px" y="0px"
	 viewBox="0 0 18 18" style="enable-background:new 0 0 18 18;" xml:space="preserve">
<style type="text/css">
	.st0{fill:#666666;}
</style>
<title>帮助的人</title>
<desc>Created with Sketch.</desc>
<path class="st0" d="M17.1,13.8c-1.1-1.5-2.9-2.4-5.3-2.8v-0.6c1.2-0.9,1.9-2.3,1.9-3.8V5.1c0-2.6-2.1-4.7-4.8-4.7S4.2,2.5,4.2,5.1
	v1.6c0,1.5,0.7,2.9,1.9,3.8V11c-2.4,0.4-4.1,1.3-5.3,2.8c-0.3,0.4-0.5,0.9-0.5,1.4v0.4c0,0.8,0.7,1.5,1.5,1.5H16
	c0.8,0,1.5-0.7,1.5-1.5v-0.4C17.6,14.7,17.4,14.2,17.1,13.8z M16.3,15.6c0,0.2-0.1,0.3-0.3,0.3H2c-0.2,0-0.3-0.1-0.3-0.3v-0.4
	c0-0.2,0.1-0.4,0.2-0.6c1-1.3,2.7-2.1,5-2.4c0.3,0,0.5-0.3,0.5-0.6v-1.4c0-0.2-0.1-0.4-0.3-0.5C6.1,9,5.5,7.9,5.5,6.7V5.1
	c0-1.9,1.6-3.5,3.5-3.5s3.5,1.6,3.5,3.5v1.6c0,1.2-0.6,2.3-1.6,2.9c-0.2,0.1-0.3,0.3-0.3,0.5v1.4c0,0.3,0.2,0.6,0.5,0.6
	c2.3,0.3,4,1.1,5,2.4c0.1,0.2,0.2,0.4,0.2,0.6V15.6z"/>
</svg>
