<?xml version="1.0" encoding="utf-8"?>
<!-- Generator: Adobe Illustrator 22.0.1, SVG Export Plug-In . SVG Version: 6.00 Build 0)  -->
<svg version="1.1" id="图层_1" xmlns="http://www.w3.org/2000/svg" xmlns:xlink="http://www.w3.org/1999/xlink" x="0px" y="0px"
	 viewBox="0 0 17 16" style="enable-background:new 0 0 17 16;" xml:space="preserve">
<style type="text/css">
	.st0{fill:#666666;}
</style>
<title>回答量</title>
<desc>Created with Sketch.</desc>
<g>
	<path class="st0" d="M12.3,1.1c-1.2-1-2.9-1.1-3.8,0L1.9,9.3c-0.4,0.5-0.7,1.1-0.8,1.8l-0.4,3c-0.1,0.5,0.3,1,0.8,1
		c0.1,0,0.3,0,0.4,0l2.9-1C5.5,13.9,6,13.5,6.5,13l6.6-8.2C13.9,3.8,13.5,2.1,12.3,1.1z M12.2,4.1l-6.6,8.2
		c-0.3,0.3-0.6,0.6-1.1,0.7L2,13.9l0.3-2.6c0.1-0.4,0.2-0.8,0.5-1.2l6.6-8.2c0.4-0.5,1.3-0.4,2.1,0.2C12.3,2.7,12.6,3.6,12.2,4.1z"
		/>
	<path class="st0" d="M16.3,14H8.8c-0.3,0-0.6,0.3-0.6,0.6c0,0.3,0.3,0.6,0.6,0.6h7.5c0.3,0,0.6-0.3,0.6-0.6
		C16.9,14.3,16.6,14,16.3,14z"/>
</g>
</svg>
