<?xml version="1.0" encoding="utf-8"?>
<!-- Generator: Adobe Illustrator 22.0.1, SVG Export Plug-In . SVG Version: 6.00 Build 0)  -->
<svg version="1.1" id="图层_1" xmlns="http://www.w3.org/2000/svg" xmlns:xlink="http://www.w3.org/1999/xlink" x="0px" y="0px"
	 viewBox="0 0 24 12" style="enable-background:new 0 0 24 12;" xml:space="preserve">
<style type="text/css">
	.st0{fill:#FFFFFF;}
</style>
<title>Lv1</title>
<desc>Created with Sketch.</desc>
<g>
	<polygon class="st0" points="3.1,0.5 0.5,0.5 0.5,11 8.5,11 8.5,10 3.1,10 	"/>
	<polygon class="st0" points="13.8,7.9 11.5,3.1 9,3.1 12.8,11.2 13.9,11.2 17.9,3.1 16.2,3.1 	"/>
	<path class="st0" d="M22.3,0.5c-0.1,0.3-0.3,0.6-0.4,0.8c-0.2,0.2-0.4,0.4-0.6,0.6c-0.2,0.2-0.5,0.3-0.9,0.4
		c-0.4,0.1-0.8,0.2-1.3,0.2v0.5h2.5v8h2.3V0.5H22.3z"/>
</g>
</svg>
