<?xml version="1.0" encoding="utf-8"?>
<!-- Generator: Adobe Illustrator 22.0.1, SVG Export Plug-In . SVG Version: 6.00 Build 0)  -->
<svg version="1.1" id="图层_1" xmlns="http://www.w3.org/2000/svg" xmlns:xlink="http://www.w3.org/1999/xlink" x="0px" y="0px"
	 viewBox="0 0 36 12" style="enable-background:new 0 0 36 12;" xml:space="preserve">
<style type="text/css">
	.st0{fill:#FFFFFF;}
</style>
<title>Lv10</title>
<desc>Created with Sketch.</desc>
<g>
	<polygon class="st0" points="2.9,0.7 0.3,0.7 0.3,11.2 8.3,11.2 8.3,10.2 2.9,10.2 	"/>
	<polygon class="st0" points="13.7,8.1 11.3,3.3 8.8,3.3 12.7,11.4 13.8,11.4 17.7,3.3 16,3.3 	"/>
	<path class="st0" d="M21.8,1.5c-0.2,0.2-0.4,0.4-0.6,0.6c-0.2,0.2-0.5,0.3-0.9,0.4c-0.4,0.1-0.8,0.2-1.3,0.2v0.5h2.5v8h2.3V0.7
		h-1.6C22.1,1,21.9,1.3,21.8,1.5z"/>
	<path class="st0" d="M35,3.9c-0.2-0.6-0.5-1.2-0.8-1.7c-0.4-0.5-0.8-0.9-1.3-1.2c-0.5-0.3-1.1-0.4-1.7-0.4c-0.6,0-1.2,0.1-1.7,0.4
		c-0.5,0.3-0.9,0.7-1.3,1.2c-0.4,0.5-0.6,1-0.8,1.7S27.1,5.3,27.1,6c0,0.8,0.1,1.5,0.3,2.2s0.5,1.2,0.8,1.7s0.8,0.9,1.3,1.1
		s1.1,0.4,1.7,0.4c0.6,0,1.2-0.1,1.7-0.4c0.5-0.3,0.9-0.6,1.3-1.1c0.4-0.5,0.6-1.1,0.8-1.7s0.3-1.4,0.3-2.2
		C35.3,5.3,35.2,4.6,35,3.9z M32.7,7.7c-0.1,0.6-0.2,1-0.3,1.5c-0.1,0.4-0.3,0.8-0.5,1c-0.2,0.3-0.4,0.4-0.7,0.4s-0.5-0.1-0.7-0.4
		c-0.2-0.3-0.4-0.6-0.5-1c-0.1-0.4-0.2-0.9-0.3-1.5c-0.1-0.6-0.1-1.1-0.1-1.7c0-0.6,0-1.2,0.1-1.7c0.1-0.5,0.2-1,0.3-1.4
		c0.1-0.4,0.3-0.7,0.5-1s0.4-0.4,0.7-0.4s0.5,0.1,0.7,0.4c0.2,0.2,0.4,0.6,0.5,1s0.2,0.9,0.3,1.4c0.1,0.5,0.1,1.1,0.1,1.7
		C32.8,6.6,32.8,7.2,32.7,7.7z"/>
</g>
</svg>
