<?xml version="1.0" encoding="utf-8"?>
<!-- Generator: Adobe Illustrator 22.0.1, SVG Export Plug-In . SVG Version: 6.00 Build 0)  -->
<svg version="1.1" id="图层_1" xmlns="http://www.w3.org/2000/svg" xmlns:xlink="http://www.w3.org/1999/xlink" x="0px" y="0px"
	 viewBox="0 0 33 12" style="enable-background:new 0 0 33 12;" xml:space="preserve">
<style type="text/css">
	.st0{fill:#FFFFFF;}
</style>
<title>Lv11</title>
<desc>Created with Sketch.</desc>
<g>
	<polygon class="st0" points="2.9,0.7 0.3,0.7 0.3,11.2 8.3,11.2 8.3,10.2 2.9,10.2 	"/>
	<polygon class="st0" points="13.7,8.1 11.3,3.3 8.8,3.3 12.7,11.4 13.8,11.4 17.7,3.3 16,3.3 	"/>
	<path class="st0" d="M21.8,1.5c-0.2,0.2-0.4,0.4-0.6,0.6c-0.2,0.2-0.5,0.3-0.9,0.4c-0.4,0.1-0.8,0.2-1.3,0.2v0.5h2.5v8h2.3V0.7
		h-1.6C22.1,1,21.9,1.3,21.8,1.5z"/>
	<path class="st0" d="M31.1,0.7c-0.1,0.3-0.3,0.6-0.4,0.8C30.5,1.8,30.3,2,30,2.1c-0.2,0.2-0.5,0.3-0.9,0.4s-0.8,0.2-1.3,0.2v0.5
		h2.5v8h2.3V0.7H31.1z"/>
</g>
</svg>
