<?xml version="1.0" encoding="utf-8"?>
<!-- Generator: Adobe Illustrator 22.0.1, SVG Export Plug-In . SVG Version: 6.00 Build 0)  -->
<svg version="1.1" id="图层_1" xmlns="http://www.w3.org/2000/svg" xmlns:xlink="http://www.w3.org/1999/xlink" x="0px" y="0px"
	 viewBox="0 0 35 12" style="enable-background:new 0 0 35 12;" xml:space="preserve">
<style type="text/css">
	.st0{fill:#FFFFFF;}
</style>
<title>Lv13</title>
<desc>Created with Sketch.</desc>
<g>
	<polygon class="st0" points="2.9,0.5 0.3,0.5 0.3,11.1 8.3,11.1 8.3,10 2.9,10 	"/>
	<polygon class="st0" points="13.7,8 11.3,3.1 8.8,3.1 12.7,11.3 13.8,11.3 17.7,3.1 16,3.1 	"/>
	<path class="st0" d="M21.8,1.4c-0.2,0.2-0.4,0.4-0.6,0.6c-0.2,0.2-0.5,0.3-0.9,0.4c-0.4,0.1-0.8,0.2-1.3,0.2v0.5h2.5v8h2.3V0.5
		h-1.6C22.1,0.8,21.9,1.1,21.8,1.4z"/>
	<path class="st0" d="M34.5,6.8c-0.1-0.3-0.2-0.5-0.4-0.8c-0.2-0.2-0.4-0.5-0.6-0.7C33.2,5.2,33,5,32.7,4.9c0.2-0.2,0.4-0.3,0.6-0.5
		c0.2-0.2,0.3-0.4,0.5-0.6s0.2-0.4,0.3-0.6c0.1-0.2,0.1-0.3,0.1-0.5c0-0.3-0.1-0.6-0.2-0.9s-0.4-0.5-0.7-0.7c-0.3-0.2-0.6-0.4-1-0.5
		c-0.4-0.1-0.8-0.2-1.2-0.2c-0.4,0-0.8,0.1-1.2,0.2c-0.4,0.1-0.7,0.3-1,0.5S28.3,1.7,28.1,2c-0.2,0.3-0.4,0.6-0.5,0.9l0.9,0.4
		C28.7,3.1,28.8,3,29,2.8c0.2-0.2,0.3-0.3,0.5-0.4c0.2-0.1,0.3-0.2,0.5-0.3c0.2-0.1,0.3-0.1,0.5-0.1c0.2,0,0.4,0,0.6,0.1
		c0.2,0.1,0.3,0.2,0.4,0.3c0.1,0.1,0.2,0.3,0.3,0.4s0.1,0.3,0.1,0.5c0,0.3-0.1,0.6-0.2,0.8c-0.1,0.3-0.3,0.5-0.5,0.7
		c-0.2,0.2-0.5,0.3-0.8,0.5c-0.3,0.1-0.7,0.2-1,0.2v0.6c0.6,0,1.1,0.1,1.5,0.2c0.4,0.1,0.8,0.3,1,0.5C32,7,32.2,7.2,32.4,7.5
		s0.2,0.6,0.2,0.9c0,0.2,0,0.5-0.1,0.7c-0.1,0.2-0.2,0.4-0.3,0.6c-0.1,0.2-0.3,0.3-0.5,0.4c-0.2,0.1-0.5,0.2-0.7,0.2
		c-0.1,0-0.3,0-0.4-0.1S30.1,10,30,9.9c-0.2-0.1-0.3-0.2-0.5-0.2S29,9.5,28.8,9.5c-0.1,0-0.3,0-0.4,0c-0.1,0-0.3,0.1-0.4,0.1
		c-0.1,0.1-0.2,0.1-0.3,0.2c-0.1,0.1-0.1,0.2-0.1,0.4c0,0.3,0.2,0.6,0.6,0.7c0.4,0.2,0.9,0.3,1.6,0.3c0.7,0,1.3-0.1,2-0.2
		s1.1-0.4,1.6-0.7s0.8-0.7,1-1.2c0.3-0.5,0.4-1,0.4-1.6C34.7,7.3,34.6,7.1,34.5,6.8z"/>
</g>
</svg>
