<?xml version="1.0" encoding="utf-8"?>
<!-- Generator: Adobe Illustrator 22.0.1, SVG Export Plug-In . SVG Version: 6.00 Build 0)  -->
<svg version="1.1" id="图层_1" xmlns="http://www.w3.org/2000/svg" xmlns:xlink="http://www.w3.org/1999/xlink" x="0px" y="0px"
	 viewBox="0 0 36 12" style="enable-background:new 0 0 36 12;" xml:space="preserve">
<style type="text/css">
	.st0{fill:#FFFFFF;}
</style>
<title>Lv14</title>
<desc>Created with Sketch.</desc>
<g>
	<polygon class="st0" points="2.9,0.8 0.3,0.8 0.3,11.3 8.3,11.3 8.3,10.3 2.9,10.3 	"/>
	<polygon class="st0" points="13.7,8.2 11.3,3.4 8.8,3.4 12.7,11.5 13.8,11.5 17.7,3.4 16,3.4 	"/>
	<path class="st0" d="M21.8,1.6c-0.2,0.2-0.4,0.4-0.6,0.6c-0.2,0.2-0.5,0.3-0.9,0.4c-0.4,0.1-0.8,0.2-1.3,0.2v0.5h2.5v8h2.3V0.8
		h-1.6C22.1,1.1,21.9,1.4,21.8,1.6z"/>
	<path class="st0" d="M34,7.3V0.7h-1.6L27,7.6v1.1h4.7v2.6H34V8.8h1.4V7.3H34z M31.7,7.3H29l2.7-3.6V7.3z"/>
</g>
</svg>
