<?xml version="1.0" encoding="utf-8"?>
<!-- Generator: Adobe Illustrator 22.0.1, SVG Export Plug-In . SVG Version: 6.00 Build 0)  -->
<svg version="1.1" id="图层_1" xmlns="http://www.w3.org/2000/svg" xmlns:xlink="http://www.w3.org/1999/xlink" x="0px" y="0px"
	 viewBox="0 0 35 12" style="enable-background:new 0 0 35 12;" xml:space="preserve">
<style type="text/css">
	.st0{fill:#FFFFFF;}
</style>
<title>Lv15备份 9</title>
<desc>Created with Sketch.</desc>
<g>
	<polygon class="st0" points="2.9,0.6 0.3,0.6 0.3,11.1 8.3,11.1 8.3,10 2.9,10 	"/>
	<polygon class="st0" points="13.7,8 11.3,3.2 8.8,3.2 12.7,11.3 13.8,11.3 17.7,3.2 16,3.2 	"/>
	<path class="st0" d="M21.8,1.4c-0.2,0.2-0.4,0.4-0.6,0.6c-0.2,0.2-0.5,0.3-0.9,0.4c-0.4,0.1-0.8,0.2-1.3,0.2v0.5h2.5v8h2.3V0.6
		h-1.6C22.1,0.9,21.9,1.2,21.8,1.4z"/>
	<path class="st0" d="M33.3,4.6c-0.4-0.4-0.9-0.6-1.4-0.9c-0.5-0.2-1.1-0.4-1.7-0.4l0.5-1H34l0.8-1.6H30l-2.3,4.3
		c0.8,0,1.5,0.1,2.1,0.2s1.2,0.3,1.6,0.6c0.4,0.2,0.8,0.5,1,0.9c0.2,0.4,0.4,0.7,0.4,1.2c0,0.3-0.1,0.6-0.2,0.9
		c-0.1,0.3-0.2,0.5-0.4,0.7s-0.4,0.4-0.6,0.5s-0.5,0.2-0.8,0.2c-0.2,0-0.4,0-0.6-0.1s-0.3-0.2-0.5-0.3s-0.3-0.2-0.5-0.3
		c-0.2-0.1-0.4-0.1-0.6-0.1c-0.1,0-0.3,0-0.4,0c-0.1,0-0.3,0.1-0.4,0.1c-0.1,0.1-0.2,0.1-0.3,0.2c-0.1,0.1-0.1,0.2-0.1,0.3
		c0,0.2,0.1,0.3,0.2,0.4s0.3,0.3,0.5,0.4c0.2,0.1,0.4,0.2,0.7,0.3c0.3,0.1,0.6,0.1,0.9,0.1c0.5,0,0.9,0,1.3-0.1
		c0.4-0.1,0.8-0.2,1.2-0.4c0.4-0.2,0.7-0.4,1-0.6c0.3-0.2,0.5-0.5,0.8-0.8c0.2-0.3,0.4-0.6,0.5-0.9s0.2-0.7,0.2-1
		c0-0.6-0.1-1.1-0.4-1.6S33.7,5,33.3,4.6z"/>
</g>
</svg>
