<?xml version="1.0" encoding="utf-8"?>
<!-- Generator: Adobe Illustrator 22.0.1, SVG Export Plug-In . SVG Version: 6.00 Build 0)  -->
<svg version="1.1" id="图层_1" xmlns="http://www.w3.org/2000/svg" xmlns:xlink="http://www.w3.org/1999/xlink" x="0px" y="0px"
	 viewBox="0 0 36 12" style="enable-background:new 0 0 36 12;" xml:space="preserve">
<style type="text/css">
	.st0{fill:#FFFFFF;}
</style>
<title>Lv16</title>
<desc>Created with Sketch.</desc>
<g>
	<polygon class="st0" points="2.9,0.6 0.3,0.6 0.3,11.1 8.3,11.1 8.3,10 2.9,10 	"/>
	<polygon class="st0" points="13.7,8 11.3,3.2 8.8,3.2 12.7,11.3 13.8,11.3 17.7,3.2 16,3.2 	"/>
	<path class="st0" d="M21.8,1.4c-0.2,0.2-0.4,0.4-0.6,0.6c-0.2,0.2-0.5,0.3-0.9,0.4c-0.4,0.1-0.8,0.2-1.3,0.2v0.5h2.5v8h2.3V0.6
		h-1.6C22.1,0.9,21.9,1.2,21.8,1.4z"/>
	<path class="st0" d="M34.9,6.4c-0.2-0.4-0.4-0.7-0.7-1c-0.3-0.3-0.7-0.5-1.1-0.7c-0.4-0.2-0.8-0.2-1.3-0.2c-0.4,0-0.7,0-1,0.1
		c-0.3,0.1-0.5,0.1-0.8,0.2c0.2-0.5,0.4-0.9,0.7-1.3c0.3-0.4,0.7-0.8,1.1-1.1c0.4-0.3,0.9-0.6,1.4-0.8s1-0.3,1.6-0.4V0.5
		c-0.8,0-1.5,0.1-2.2,0.2c-0.7,0.2-1.3,0.4-1.9,0.7c-0.6,0.3-1.1,0.6-1.5,1c-0.4,0.4-0.8,0.9-1.1,1.3c-0.3,0.5-0.5,1-0.7,1.6
		c-0.2,0.6-0.2,1.1-0.2,1.7c0,0.6,0.1,1.1,0.3,1.6c0.2,0.5,0.5,1,0.8,1.3c0.4,0.4,0.8,0.7,1.3,0.9s1,0.3,1.6,0.3
		c0.6,0,1.1-0.1,1.5-0.3c0.5-0.2,0.9-0.5,1.3-0.8s0.6-0.7,0.9-1.2c0.2-0.5,0.3-0.9,0.3-1.4C35.2,7.2,35.1,6.8,34.9,6.4z M32.6,9.2
		c-0.1,0.3-0.2,0.5-0.3,0.7c-0.1,0.2-0.3,0.4-0.4,0.5s-0.3,0.2-0.5,0.2c-0.3,0-0.5-0.1-0.7-0.3c-0.2-0.2-0.4-0.4-0.5-0.7
		c-0.1-0.3-0.2-0.6-0.3-1c-0.1-0.4-0.1-0.8-0.1-1.2c0-0.2,0-0.4,0-0.6s0-0.5,0.1-0.7c0.2-0.1,0.4-0.2,0.7-0.3
		c0.2-0.1,0.4-0.1,0.6-0.1c0.2,0,0.5,0.1,0.7,0.2c0.2,0.1,0.4,0.3,0.5,0.6s0.3,0.6,0.4,0.9s0.1,0.7,0.1,1.1
		C32.7,8.6,32.7,8.9,32.6,9.2z"/>
</g>
</svg>
