<?xml version="1.0" encoding="utf-8"?>
<!-- Generator: Adobe Illustrator 22.0.1, SVG Export Plug-In . SVG Version: 6.00 Build 0)  -->
<svg version="1.1" id="图层_1" xmlns="http://www.w3.org/2000/svg" xmlns:xlink="http://www.w3.org/1999/xlink" x="0px" y="0px"
	 viewBox="0 0 35 12" style="enable-background:new 0 0 35 12;" xml:space="preserve">
<style type="text/css">
	.st0{enable-background:new    ;}
	.st1{fill:#FFFFFF;}
</style>
<title>Lv17</title>
<desc>Created with Sketch.</desc>
<g id="页面-1">
	<g id="画板" transform="translate(-1490.000000, -3258.000000)">
		<g class="st0">
			<path class="st1" d="M1490.3,3258.7h2.6v9.5h5.4v1.1h-8V3258.7z"/>
			<path class="st1" d="M1501.3,3261.3l2.3,4.9l2.4-4.9h1.6l-3.9,8.1h-1.1l-3.9-8.1H1501.3z"/>
			<path class="st1" d="M1511.4,3269.2v-8h-2.5v-0.5c0.5,0,1-0.1,1.3-0.2c0.4-0.1,0.7-0.2,0.9-0.4c0.2-0.2,0.4-0.4,0.6-0.6
				c0.2-0.2,0.3-0.5,0.4-0.8h1.6v10.5H1511.4z"/>
			<path class="st1" d="M1524.8,3259.3l-3.7,10.1h-1.8l3.3-9h-4.9l0.6-1.6h6.6V3259.3z"/>
		</g>
	</g>
</g>
</svg>
