<?xml version="1.0" encoding="utf-8"?>
<!-- Generator: Adobe Illustrator 22.0.1, SVG Export Plug-In . SVG Version: 6.00 Build 0)  -->
<svg version="1.1" id="图层_1" xmlns="http://www.w3.org/2000/svg" xmlns:xlink="http://www.w3.org/1999/xlink" x="0px" y="0px"
	 viewBox="0 0 35 12" style="enable-background:new 0 0 35 12;" xml:space="preserve">
<style type="text/css">
	.st0{enable-background:new    ;}
	.st1{fill:#FFFFFF;}
</style>
<title>Lv18</title>
<desc>Created with Sketch.</desc>
<g id="页面-1">
	<g id="画板" transform="translate(-1560.000000, -3258.000000)">
		<g class="st0">
			<path class="st1" d="M1560.3,3258.6h2.6v9.5h5.4v1.1h-8V3258.6z"/>
			<path class="st1" d="M1571.3,3261.2l2.3,4.9l2.4-4.9h1.6l-3.9,8.1h-1.1l-3.9-8.1H1571.3z"/>
			<path class="st1" d="M1581.4,3269.1v-8h-2.5v-0.5c0.5,0,1-0.1,1.3-0.2c0.4-0.1,0.7-0.2,0.9-0.4c0.2-0.2,0.4-0.4,0.6-0.6
				c0.2-0.2,0.3-0.5,0.4-0.8h1.6v10.5H1581.4z"/>
			<path class="st1" d="M1591,3258.5c0.5,0,1,0.1,1.4,0.2c0.4,0.1,0.8,0.3,1.1,0.5c0.3,0.2,0.6,0.5,0.7,0.8c0.2,0.3,0.3,0.6,0.3,1
				c0,0.2-0.1,0.4-0.2,0.6c-0.1,0.2-0.3,0.4-0.5,0.7c-0.2,0.2-0.4,0.4-0.7,0.6c-0.3,0.2-0.5,0.4-0.8,0.5c0.4,0.3,0.8,0.5,1.1,0.8
				c0.3,0.3,0.6,0.6,0.8,0.8c0.2,0.3,0.4,0.5,0.5,0.8c0.1,0.3,0.1,0.5,0.1,0.7c0,0.4-0.1,0.7-0.3,1.1c-0.2,0.3-0.5,0.6-0.8,0.9
				s-0.7,0.5-1.2,0.6c-0.4,0.2-0.9,0.2-1.4,0.2c-0.5,0-1-0.1-1.5-0.2s-0.8-0.3-1.2-0.6c-0.3-0.2-0.6-0.5-0.8-0.8
				c-0.2-0.3-0.3-0.7-0.3-1c0-0.3,0.1-0.6,0.2-0.8c0.1-0.3,0.2-0.5,0.4-0.7c0.2-0.2,0.4-0.4,0.7-0.7c0.3-0.2,0.6-0.4,0.9-0.6
				c-0.4-0.3-0.7-0.5-0.9-0.7s-0.5-0.4-0.6-0.6c-0.2-0.2-0.3-0.4-0.3-0.6c-0.1-0.2-0.1-0.5-0.1-0.7c0-0.4,0.1-0.7,0.3-1
				c0.2-0.3,0.4-0.6,0.7-0.8s0.7-0.4,1.1-0.6C1590.2,3258.6,1590.6,3258.5,1591,3258.5z M1590.6,3264.5c-0.2,0.2-0.3,0.3-0.4,0.5
				c-0.1,0.2-0.2,0.4-0.3,0.5c-0.1,0.2-0.1,0.4-0.2,0.5c0,0.2,0,0.3,0,0.5c0,0.3,0,0.5,0.1,0.7c0.1,0.2,0.2,0.4,0.3,0.6
				c0.1,0.2,0.3,0.3,0.5,0.4s0.4,0.1,0.6,0.1c0.2,0,0.4,0,0.6-0.1s0.4-0.2,0.5-0.3c0.1-0.1,0.3-0.2,0.3-0.4c0.1-0.2,0.1-0.3,0.1-0.5
				c0-0.1,0-0.3-0.1-0.4c-0.1-0.2-0.1-0.3-0.2-0.5c-0.1-0.1-0.2-0.3-0.3-0.4c-0.1-0.1-0.2-0.2-0.4-0.3L1590.6,3264.5z
				 M1589.8,3260.7c0,0.2,0,0.4,0.1,0.6c0.1,0.2,0.2,0.4,0.4,0.5c0.2,0.2,0.3,0.3,0.5,0.5c0.2,0.2,0.4,0.3,0.6,0.4
				c0.2-0.1,0.3-0.3,0.4-0.5c0.1-0.2,0.2-0.3,0.3-0.5c0.1-0.2,0.2-0.4,0.2-0.6s0.1-0.4,0.1-0.6c0-0.2,0-0.3-0.1-0.5
				s-0.2-0.3-0.3-0.4c-0.1-0.1-0.3-0.2-0.4-0.3s-0.4-0.1-0.6-0.1c-0.2,0-0.4,0-0.5,0.1s-0.3,0.2-0.4,0.3c-0.1,0.1-0.2,0.3-0.3,0.4
				C1589.8,3260.4,1589.8,3260.5,1589.8,3260.7z"/>
		</g>
	</g>
</g>
</svg>
