<?xml version="1.0" encoding="utf-8"?>
<!-- Generator: Adobe Illustrator 22.0.1, SVG Export Plug-In . SVG Version: 6.00 Build 0)  -->
<svg version="1.1" id="图层_1" xmlns="http://www.w3.org/2000/svg" xmlns:xlink="http://www.w3.org/1999/xlink" x="0px" y="0px"
	 viewBox="0 0 36 12" style="enable-background:new 0 0 36 12;" xml:space="preserve">
<style type="text/css">
	.st0{enable-background:new    ;}
	.st1{fill:#FFFFFF;}
</style>
<title>Lv19</title>
<desc>Created with Sketch.</desc>
<g id="页面-1">
	<g id="画板" transform="translate(-1629.000000, -3258.000000)">
		<g class="st0">
			<path class="st1" d="M1629.3,3258.7h2.6v9.5h5.4v1.1h-8V3258.7z"/>
			<path class="st1" d="M1640.3,3261.3l2.3,4.9l2.4-4.9h1.6l-3.9,8.1h-1.1l-3.9-8.1H1640.3z"/>
			<path class="st1" d="M1650.4,3269.2v-8h-2.5v-0.5c0.5,0,1-0.1,1.3-0.2c0.4-0.1,0.7-0.2,0.9-0.4c0.2-0.2,0.4-0.4,0.6-0.6
				c0.2-0.2,0.3-0.5,0.4-0.8h1.6v10.5H1650.4z"/>
			<path class="st1" d="M1656.5,3268.9c0.5,0,1-0.2,1.5-0.4c0.5-0.2,0.9-0.5,1.4-0.8c0.4-0.3,0.8-0.7,1.1-1.1
				c0.3-0.4,0.6-0.8,0.8-1.3c-0.2,0.1-0.5,0.2-0.8,0.2c-0.3,0.1-0.6,0.1-0.9,0.1c-0.5,0-1-0.1-1.4-0.3c-0.4-0.2-0.7-0.4-1-0.7
				c-0.3-0.3-0.5-0.7-0.7-1c-0.2-0.4-0.2-0.8-0.2-1.2c0-0.5,0.1-1,0.3-1.4c0.2-0.4,0.5-0.8,0.9-1.2c0.4-0.3,0.8-0.6,1.3-0.8
				c0.5-0.2,1-0.3,1.6-0.3c0.6,0,1.1,0.1,1.5,0.3c0.5,0.2,0.9,0.5,1.3,0.9c0.4,0.4,0.6,0.8,0.8,1.3s0.3,1,0.3,1.6
				c0,0.6-0.1,1.2-0.3,1.8c-0.2,0.6-0.4,1.1-0.8,1.6s-0.7,0.9-1.2,1.3s-1,0.8-1.6,1c-0.6,0.3-1.2,0.5-1.8,0.7s-1.3,0.2-2,0.2V3268.9
				z M1660.3,3264.6c0.1,0,0.2,0,0.3,0c0.1,0,0.2-0.1,0.3-0.1c0.1,0,0.2-0.1,0.3-0.2c0.1-0.1,0.2-0.1,0.3-0.2c0-0.2,0.1-0.4,0.1-0.7
				s0-0.5,0-0.8c0-0.4,0-0.8-0.1-1.2c-0.1-0.4-0.2-0.7-0.4-1c-0.2-0.3-0.3-0.5-0.5-0.7c-0.2-0.2-0.4-0.2-0.7-0.2
				c-0.2,0-0.4,0.1-0.6,0.2c-0.2,0.1-0.3,0.3-0.4,0.5c-0.1,0.2-0.2,0.4-0.2,0.7c0,0.3-0.1,0.5-0.1,0.8c0,0.4,0,0.8,0.1,1.1
				c0.1,0.4,0.2,0.7,0.3,0.9s0.3,0.5,0.5,0.6S1660,3264.6,1660.3,3264.6z"/>
		</g>
	</g>
</g>
</svg>
