<?xml version="1.0" encoding="utf-8"?>
<!-- Generator: Adobe Illustrator 22.0.1, SVG Export Plug-In . SVG Version: 6.00 Build 0)  -->
<svg version="1.1" id="图层_1" xmlns="http://www.w3.org/2000/svg" xmlns:xlink="http://www.w3.org/1999/xlink" x="0px" y="0px"
	 viewBox="0 0 27 12" style="enable-background:new 0 0 27 12;" xml:space="preserve">
<style type="text/css">
	.st0{fill:#FFFFFF;}
</style>
<title>Lv2</title>
<desc>Created with Sketch.</desc>
<g>
	<polygon class="st0" points="3.3,0.5 0.7,0.5 0.7,11.1 8.7,11.1 8.7,10 3.3,10 	"/>
	<polygon class="st0" points="14.1,8 11.8,3.1 9.2,3.1 13.1,11.3 14.2,11.3 18.1,3.1 16.5,3.1 	"/>
	<path class="st0" d="M21.7,9.6c0.8-0.7,1.5-1.4,2.1-2c0.6-0.6,1-1.1,1.4-1.6C25.5,5.4,25.8,5,26,4.6s0.3-0.8,0.3-1.2
		c0-0.4-0.1-0.8-0.2-1.1s-0.4-0.7-0.7-0.9c-0.3-0.3-0.7-0.5-1.1-0.6s-1-0.2-1.5-0.2c-0.5,0-0.9,0.1-1.3,0.3s-0.8,0.4-1.1,0.7
		s-0.6,0.7-0.8,1.1C19.2,3,19.1,3.4,19,3.9h1.1c0-0.2,0.1-0.5,0.3-0.7c0.1-0.2,0.3-0.4,0.5-0.6s0.4-0.3,0.6-0.4
		c0.2-0.1,0.4-0.1,0.7-0.1c0.3,0,0.5,0.1,0.7,0.2c0.2,0.1,0.4,0.3,0.5,0.5c0.1,0.2,0.3,0.4,0.3,0.7s0.1,0.5,0.1,0.8
		c0,0.2,0,0.4-0.1,0.6s-0.1,0.4-0.3,0.7S23.2,5.9,23,6.2c-0.2,0.3-0.5,0.7-0.9,1.1c-0.4,0.4-0.8,0.9-1.4,1.4
		c-0.5,0.5-1.2,1.2-1.9,1.9v0.5h7.1l0.9-1.5H21.7z"/>
</g>
</svg>
