<?xml version="1.0" encoding="utf-8"?>
<!-- Generator: Adobe Illustrator 22.0.1, SVG Export Plug-In . SVG Version: 6.00 Build 0)  -->
<svg version="1.1" id="图层_1" xmlns="http://www.w3.org/2000/svg" xmlns:xlink="http://www.w3.org/1999/xlink" x="0px" y="0px"
	 viewBox="0 0 36 12" style="enable-background:new 0 0 36 12;" xml:space="preserve">
<style type="text/css">
	.st0{enable-background:new    ;}
	.st1{fill:#FFFFFF;}
</style>
<title>Lv20</title>
<desc>Created with Sketch.</desc>
<g id="页面-1">
	<g id="画板" transform="translate(-1698.000000, -3258.000000)">
		<g class="st0">
			<path class="st1" d="M1698.3,3258.6h2.6v9.5h5.4v1.1h-8V3258.6z"/>
			<path class="st1" d="M1709.3,3261.2l2.3,4.9l2.4-4.9h1.6l-3.9,8.1h-1.1l-3.9-8.1H1709.3z"/>
			<path class="st1" d="M1716.3,3269.2v-0.5c0.7-0.7,1.4-1.3,1.9-1.9c0.5-0.5,1-1,1.4-1.4c0.4-0.4,0.7-0.8,0.9-1.1
				c0.2-0.3,0.4-0.6,0.5-0.8c0.1-0.2,0.2-0.5,0.3-0.7s0.1-0.4,0.1-0.6c0-0.3,0-0.5-0.1-0.8s-0.2-0.5-0.3-0.7
				c-0.1-0.2-0.3-0.3-0.5-0.5c-0.2-0.1-0.5-0.2-0.7-0.2c-0.2,0-0.5,0-0.7,0.1c-0.2,0.1-0.4,0.2-0.6,0.4s-0.3,0.4-0.5,0.6
				c-0.1,0.2-0.2,0.4-0.3,0.7h-1.1c0-0.5,0.2-0.9,0.4-1.3c0.2-0.4,0.5-0.8,0.8-1.1c0.3-0.3,0.7-0.5,1.1-0.7c0.4-0.2,0.9-0.3,1.3-0.3
				c0.6,0,1.1,0.1,1.5,0.2s0.8,0.4,1.1,0.6c0.3,0.3,0.5,0.6,0.7,0.9s0.2,0.7,0.2,1.1c0,0.4-0.1,0.8-0.3,1.2
				c-0.2,0.4-0.5,0.8-0.8,1.3c-0.4,0.5-0.8,1-1.4,1.6c-0.6,0.6-1.3,1.3-2.1,2h5.1l-0.9,1.5H1716.3z"/>
			<path class="st1" d="M1729.2,3269.4c-0.6,0-1.2-0.1-1.7-0.4s-0.9-0.6-1.3-1.1s-0.6-1.1-0.8-1.7s-0.3-1.4-0.3-2.2
				c0-0.7,0.1-1.4,0.3-2.1s0.5-1.2,0.8-1.7c0.4-0.5,0.8-0.9,1.3-1.2c0.5-0.3,1.1-0.4,1.7-0.4c0.6,0,1.2,0.1,1.7,0.4
				c0.5,0.3,0.9,0.7,1.3,1.2c0.4,0.5,0.6,1,0.8,1.7s0.3,1.3,0.3,2.1c0,0.8-0.1,1.5-0.3,2.2s-0.5,1.2-0.8,1.7
				c-0.4,0.5-0.8,0.9-1.3,1.1C1730.4,3269.3,1729.8,3269.4,1729.2,3269.4z M1729.2,3268.5c0.3,0,0.5-0.1,0.7-0.4
				c0.2-0.3,0.4-0.6,0.5-1c0.1-0.4,0.2-0.9,0.3-1.5c0.1-0.6,0.1-1.1,0.1-1.7c0-0.6,0-1.2-0.1-1.7c-0.1-0.5-0.2-1-0.3-1.4
				s-0.3-0.7-0.5-1c-0.2-0.2-0.4-0.4-0.7-0.4s-0.5,0.1-0.7,0.4s-0.4,0.6-0.5,1c-0.1,0.4-0.2,0.9-0.3,1.4c-0.1,0.5-0.1,1.1-0.1,1.7
				c0,0.6,0,1.2,0.1,1.7c0.1,0.6,0.2,1,0.3,1.5c0.1,0.4,0.3,0.8,0.5,1C1728.7,3268.4,1728.9,3268.5,1729.2,3268.5z"/>
		</g>
	</g>
</g>
</svg>
