<?xml version="1.0" encoding="utf-8"?>
<!-- Generator: Adobe Illustrator 22.0.1, SVG Export Plug-In . SVG Version: 6.00 Build 0)  -->
<svg version="1.1" id="图层_1" xmlns="http://www.w3.org/2000/svg" xmlns:xlink="http://www.w3.org/1999/xlink" x="0px" y="0px"
	 viewBox="0 0 26 12" style="enable-background:new 0 0 26 12;" xml:space="preserve">
<style type="text/css">
	.st0{fill:#FFFFFF;}
</style>
<title>Lv3</title>
<desc>Created with Sketch.</desc>
<g>
	<polygon class="st0" points="2.9,0.6 0.3,0.6 0.3,11.2 8.3,11.2 8.3,10.1 2.9,10.1 	"/>
	<polygon class="st0" points="13.7,8.1 11.3,3.2 8.8,3.2 12.7,11.3 13.8,11.3 17.7,3.2 16,3.2 	"/>
	<path class="st0" d="M25.6,6.9c-0.1-0.3-0.2-0.5-0.4-0.8c-0.2-0.2-0.4-0.5-0.6-0.7c-0.2-0.2-0.5-0.4-0.8-0.5
		c0.2-0.2,0.4-0.3,0.6-0.5c0.2-0.2,0.3-0.4,0.5-0.6s0.2-0.4,0.3-0.6c0.1-0.2,0.1-0.3,0.1-0.5c0-0.3-0.1-0.6-0.2-0.9
		c-0.2-0.3-0.4-0.5-0.7-0.7c-0.3-0.2-0.6-0.4-1-0.5c-0.4-0.1-0.8-0.2-1.2-0.2c-0.4,0-0.8,0.1-1.2,0.2c-0.4,0.1-0.7,0.3-1,0.5
		c-0.3,0.2-0.5,0.5-0.7,0.8S18.9,2.7,18.8,3l0.9,0.4c0.1-0.2,0.2-0.4,0.4-0.5c0.2-0.2,0.3-0.3,0.5-0.4s0.3-0.2,0.5-0.3
		C21.3,2.1,21.4,2,21.6,2c0.2,0,0.4,0,0.6,0.1c0.2,0.1,0.3,0.2,0.4,0.3c0.1,0.1,0.2,0.3,0.3,0.4c0.1,0.2,0.1,0.3,0.1,0.5
		c0,0.3-0.1,0.6-0.2,0.8s-0.3,0.5-0.5,0.7c-0.2,0.2-0.5,0.3-0.8,0.5c-0.3,0.1-0.7,0.2-1,0.2v0.6c0.6,0,1.1,0.1,1.5,0.2
		s0.8,0.3,1,0.5c0.3,0.2,0.5,0.4,0.6,0.7c0.1,0.3,0.2,0.6,0.2,0.9c0,0.2,0,0.5-0.1,0.7s-0.2,0.4-0.3,0.6c-0.1,0.2-0.3,0.3-0.5,0.4
		c-0.2,0.1-0.5,0.2-0.7,0.2c-0.1,0-0.3,0-0.4-0.1c-0.1-0.1-0.3-0.2-0.4-0.2c-0.2-0.1-0.3-0.2-0.5-0.2s-0.4-0.1-0.7-0.1
		c-0.1,0-0.3,0-0.4,0s-0.3,0.1-0.4,0.1c-0.1,0.1-0.2,0.1-0.3,0.2c-0.1,0.1-0.1,0.2-0.1,0.4c0,0.3,0.2,0.6,0.6,0.7
		c0.4,0.2,0.9,0.3,1.6,0.3c0.7,0,1.4-0.1,2-0.2s1.1-0.4,1.6-0.7s0.8-0.7,1-1.2c0.3-0.5,0.4-1,0.4-1.6C25.8,7.4,25.7,7.2,25.6,6.9z"
		/>
</g>
</svg>
