<?xml version="1.0" encoding="utf-8"?>
<!-- Generator: Adobe Illustrator 22.0.1, SVG Export Plug-In . SVG Version: 6.00 Build 0)  -->
<svg version="1.1" id="图层_1" xmlns="http://www.w3.org/2000/svg" xmlns:xlink="http://www.w3.org/1999/xlink" x="0px" y="0px"
	 viewBox="0 0 27 12" style="enable-background:new 0 0 27 12;" xml:space="preserve">
<style type="text/css">
	.st0{fill:#FFFFFF;}
</style>
<title>Lv6</title>
<desc>Created with Sketch.</desc>
<g>
	<polygon class="st0" points="3.2,0.5 0.7,0.5 0.7,11.1 8.6,11.1 8.6,10 3.2,10 	"/>
	<polygon class="st0" points="14,8 11.7,3.1 9.1,3.1 13,11.3 14.1,11.3 18,3.1 16.4,3.1 	"/>
	<path class="st0" d="M26.3,6.4c-0.2-0.4-0.4-0.7-0.7-1c-0.3-0.3-0.7-0.5-1.1-0.7c-0.4-0.2-0.8-0.2-1.3-0.2c-0.4,0-0.7,0-1,0.1
		c-0.3,0.1-0.5,0.1-0.8,0.2c0.2-0.5,0.4-0.9,0.7-1.3s0.7-0.8,1.1-1.1c0.4-0.3,0.9-0.6,1.4-0.8s1-0.3,1.6-0.4V0.5
		c-0.8,0-1.5,0.1-2.2,0.2c-0.7,0.2-1.3,0.4-1.9,0.7s-1.1,0.6-1.5,1c-0.4,0.4-0.8,0.9-1.1,1.3c-0.3,0.5-0.5,1-0.7,1.6
		c-0.2,0.6-0.2,1.1-0.2,1.7c0,0.6,0.1,1.1,0.3,1.6c0.2,0.5,0.5,1,0.8,1.3c0.4,0.4,0.8,0.7,1.3,0.9s1,0.3,1.6,0.3
		c0.5,0,1.1-0.1,1.5-0.3s0.9-0.5,1.3-0.8s0.6-0.7,0.9-1.2c0.2-0.5,0.3-0.9,0.3-1.4C26.6,7.2,26.5,6.7,26.3,6.4z M24.1,9.1
		c-0.1,0.3-0.2,0.5-0.3,0.7s-0.3,0.4-0.4,0.5s-0.3,0.2-0.5,0.2c-0.3,0-0.5-0.1-0.7-0.3c-0.2-0.2-0.4-0.4-0.5-0.7
		c-0.1-0.3-0.2-0.6-0.3-1c-0.1-0.4-0.1-0.8-0.1-1.2c0-0.2,0-0.4,0-0.6s0-0.5,0.1-0.7c0.2-0.1,0.4-0.2,0.7-0.3
		c0.2-0.1,0.4-0.1,0.6-0.1c0.2,0,0.5,0.1,0.7,0.2c0.2,0.1,0.4,0.3,0.5,0.6s0.3,0.6,0.4,0.9c0.1,0.3,0.1,0.7,0.1,1.1
		C24.2,8.6,24.2,8.8,24.1,9.1z"/>
</g>
</svg>
