<?xml version="1.0" encoding="utf-8"?>
<!-- Generator: Adobe Illustrator 22.0.1, SVG Export Plug-In . SVG Version: 6.00 Build 0)  -->
<svg version="1.1" id="图层_1" xmlns="http://www.w3.org/2000/svg" xmlns:xlink="http://www.w3.org/1999/xlink" x="0px" y="0px"
	 viewBox="0 0 26 12" style="enable-background:new 0 0 26 12;" xml:space="preserve">
<style type="text/css">
	.st0{fill:#FFFFFF;}
</style>
<title>Lv8</title>
<desc>Created with Sketch.</desc>
<g>
	<polygon class="st0" points="2.8,0.6 0.2,0.6 0.2,11.1 8.2,11.1 8.2,10 2.8,10 	"/>
	<polygon class="st0" points="13.6,8 11.2,3.2 8.7,3.2 12.5,11.3 13.6,11.3 17.6,3.2 15.9,3.2 	"/>
	<path class="st0" d="M25.7,7.9c-0.1-0.3-0.2-0.5-0.5-0.8c-0.2-0.3-0.5-0.6-0.8-0.8c-0.3-0.3-0.7-0.6-1.1-0.8
		c0.3-0.1,0.6-0.3,0.8-0.5c0.3-0.2,0.5-0.4,0.7-0.6c0.2-0.2,0.4-0.4,0.5-0.7c0.1-0.2,0.2-0.4,0.2-0.6c0-0.3-0.1-0.7-0.3-1
		c-0.2-0.3-0.4-0.6-0.7-0.8c-0.3-0.2-0.7-0.4-1.1-0.5C23,0.6,22.5,0.5,22,0.5c-0.5,0-0.9,0.1-1.3,0.2c-0.4,0.1-0.8,0.3-1.1,0.6
		S19.1,1.8,19,2.1c-0.2,0.3-0.3,0.6-0.3,1c0,0.3,0,0.5,0.1,0.7c0.1,0.2,0.2,0.4,0.3,0.6s0.4,0.4,0.6,0.6s0.6,0.5,0.9,0.7
		c-0.3,0.2-0.6,0.4-0.9,0.6c-0.3,0.2-0.5,0.4-0.7,0.7c-0.2,0.2-0.3,0.5-0.4,0.7c-0.1,0.3-0.2,0.5-0.2,0.8c0,0.4,0.1,0.7,0.3,1
		c0.2,0.3,0.4,0.6,0.8,0.8c0.3,0.2,0.7,0.4,1.2,0.6s0.9,0.2,1.5,0.2c0.5,0,1-0.1,1.4-0.2c0.4-0.2,0.8-0.4,1.2-0.6
		c0.3-0.3,0.6-0.6,0.8-0.9c0.2-0.3,0.3-0.7,0.3-1.1C25.8,8.3,25.8,8.1,25.7,7.9z M20.9,2.2c0.1-0.2,0.1-0.3,0.3-0.4
		c0.1-0.1,0.2-0.2,0.4-0.3s0.3-0.1,0.5-0.1c0.2,0,0.4,0,0.6,0.1c0.2,0.1,0.3,0.1,0.4,0.3c0.1,0.1,0.2,0.2,0.3,0.4
		c0.1,0.1,0.1,0.3,0.1,0.5c0,0.2,0,0.4-0.1,0.6c0,0.2-0.1,0.4-0.2,0.6C23.1,4,23,4.2,22.8,4.3s-0.3,0.3-0.4,0.5
		c-0.2-0.1-0.4-0.3-0.6-0.4c-0.2-0.2-0.4-0.3-0.5-0.5c-0.2-0.2-0.3-0.4-0.4-0.5c-0.1-0.2-0.1-0.4-0.1-0.6
		C20.8,2.5,20.8,2.4,20.9,2.2z M23.7,9.7c-0.1,0.2-0.2,0.3-0.3,0.4c-0.1,0.1-0.3,0.2-0.5,0.3s-0.4,0.1-0.6,0.1c-0.2,0-0.4,0-0.6-0.1
		c-0.2-0.1-0.3-0.2-0.5-0.4c-0.1-0.2-0.2-0.4-0.3-0.6c-0.1-0.2-0.1-0.5-0.1-0.7c0-0.1,0-0.3,0-0.5s0.1-0.4,0.2-0.5s0.2-0.4,0.3-0.5
		c0.1-0.2,0.2-0.3,0.4-0.5l1.3,1c0.1,0.1,0.2,0.2,0.4,0.3c0.1,0.1,0.2,0.3,0.3,0.4c0.1,0.1,0.2,0.3,0.2,0.5s0.1,0.3,0.1,0.4
		C23.8,9.4,23.8,9.6,23.7,9.7z"/>
</g>
</svg>
