<?xml version="1.0" encoding="UTF-8"?>
<svg width="24px" height="14px" viewBox="0 0 24 14" version="1.1" xmlns="http://www.w3.org/2000/svg" xmlns:xlink="http://www.w3.org/1999/xlink">
    <!-- Generator: Sketch 55.2 (78181) - https://sketchapp.com -->
    <title>分组 2pc</title>
    <desc>Created with Sketch.</desc>
    <defs>
        <linearGradient x1="0%" y1="42.2204908%" x2="120.776029%" y2="64.7129655%" id="linearGradient-1">
            <stop stop-color="#FFC042" offset="0%"></stop>
            <stop stop-color="#FF5F29" offset="100%"></stop>
        </linearGradient>
    </defs>
    <g id="Page-1" stroke="none" stroke-width="1" fill="none" fill-rule="evenodd">
        <g id="首页导航默认态" transform="translate(-777.000000, -144.000000)">
            <g id="分组-2" transform="translate(777.000000, 144.000000)">
                <path d="M5,2.25153229e-12 L19,2.25153229e-12 C21.7614237,2.25102503e-12 24,2.23857625 24,5 L24,9 C24,11.7614237 21.7614237,14 19,14 L-3.55271368e-14,14 L-3.55271368e-14,5 C-3.58653137e-14,2.23857625 2.23857625,2.25203956e-12 5,2.25153229e-12 Z" id="矩形" fill="url(#linearGradient-1)"></path>
                <path d="M4.62739828,10 L4.62739828,3.916 L5.85139828,3.916 L5.85139828,4.504 L5.87539828,4.504 C6.00339892,4.31199904 6.15739738,4.15400062 6.33739828,4.03 C6.51739918,3.90599938 6.74739688,3.844 7.02739828,3.844 C7.17939904,3.844 7.33139752,3.86999974 7.48339828,3.922 C7.63539904,3.97400026 7.77139768,4.0599994 7.89139828,4.18 C8.01139888,4.3000006 8.10739792,4.45399906 8.17939828,4.642 C8.25139864,4.83000094 8.28739828,5.05999864 8.28739828,5.332 L8.28739828,10 L7.06339828,10 L7.06339828,5.788 C7.06339828,5.56399888 7.0113988,5.38800064 6.90739828,5.26 C6.80339776,5.13199936 6.65539924,5.068 6.46339828,5.068 C6.23139712,5.068 6.07139872,5.13999928 5.98339828,5.284 C5.89539784,5.42800072 5.85139828,5.63599864 5.85139828,5.908 L5.85139828,10 L4.62739828,10 Z M12.8353983,7.42 L10.4113983,7.42 L10.4113983,8.248 C10.4113983,8.44000096 10.4653977,8.58799948 10.5733983,8.692 C10.6813988,8.79600052 10.8273974,8.848 11.0113983,8.848 C11.2433994,8.848 11.3973979,8.78000068 11.4733983,8.644 C11.5493987,8.50799932 11.5953982,8.37200068 11.6113983,8.236 L12.8353983,8.236 C12.8353983,8.77200268 12.6713999,9.20399836 12.3433983,9.532 C12.1833975,9.70000084 11.9913994,9.83199952 11.7673983,9.928 C11.5433972,10.0240005 11.2913997,10.072 11.0113983,10.072 C10.6273964,10.072 10.3013996,9.9920008 10.0333983,9.832 C9.76539694,9.6719992 9.559399,9.46000132 9.41539828,9.196 C9.32739784,9.0359992 9.26739844,8.85200104 9.23539828,8.644 C9.20339812,8.43599896 9.18739828,8.20800124 9.18739828,7.96 L9.18739828,5.956 C9.18739828,5.70799876 9.20339812,5.48000104 9.23539828,5.272 C9.26739844,5.06399896 9.32739784,4.8800008 9.41539828,4.72 C9.559399,4.45599868 9.76539694,4.2440008 10.0333983,4.084 C10.3013996,3.9239992 10.6273964,3.844 11.0113983,3.844 C11.2913997,3.844 11.5453971,3.89199952 11.7733983,3.988 C12.0013994,4.08400048 12.1953975,4.21599916 12.3553983,4.384 C12.6753999,4.7440018 12.8353983,5.19599728 12.8353983,5.74 L12.8353983,7.42 Z M10.4113983,6.46 L11.6113983,6.46 L11.6113983,5.764 C11.6113983,5.53199884 11.5573988,5.35800058 11.4493983,5.242 C11.3413977,5.12599942 11.1953992,5.068 11.0113983,5.068 C10.8273974,5.068 10.6813988,5.12599942 10.5733983,5.242 C10.4653977,5.35800058 10.4113983,5.53199884 10.4113983,5.764 L10.4113983,6.46 Z M19.6513983,3.916 L18.2113983,10 L17.1313983,10 L16.4593983,6.388 L16.4353983,6.388 L15.7633983,10 L14.6833983,10 L13.2433983,3.916 L14.5393983,3.916 L15.2833983,7.696 L15.3073983,7.696 L15.9913983,3.916 L16.9513983,3.916 L17.5993983,7.696 L17.6233983,7.696 L18.3553983,3.916 L19.6513983,3.916 Z" id="new" fill="#FFFFFF" fill-rule="nonzero"></path>
            </g>
        </g>
    </g>
</svg>