<?xml version="1.0" encoding="utf-8"?>
<!-- Generator: Adobe Illustrator 21.0.0, SVG Export Plug-In . SVG Version: 6.00 Build 0)  -->
<svg version="1.1" id="图层_1" xmlns="http://www.w3.org/2000/svg" xmlns:xlink="http://www.w3.org/1999/xlink" x="0px" y="0px"
	 viewBox="0 0 14 16" style="enable-background:new 0 0 14 16;" xml:space="preserve">
<style type="text/css">
	.st0{fill:#9DACB6;}
</style>
<g>
	<path class="st0" d="M13,14.1c0,0.6-0.4,1-1,1H2c-0.6,0-1-0.4-1-1V2c0-0.6,0.4-1,1-1h7V0H2C0.9,0,0,0.9,0,2v12c0,1.1,0.9,2,2,2h10
		c1.1,0,2-0.9,2-2V5l-1,0.1V14.1z"/>
	<polygon class="st0" points="10,0 10,4 14,4 	"/>
	<polygon class="st0" points="9.5,5.7 9.5,4.8 4.4,4.8 4.4,11.9 9.6,11.9 9.6,11 5.4,11 5.4,8.7 9.2,8.7 9.2,7.8 5.4,7.8 5.4,5.7 	
		"/>
</g>
</svg>
