<?xml version="1.0" encoding="utf-8"?>
<!-- Generator: Adobe Illustrator 21.0.0, SVG Export Plug-In . SVG Version: 6.00 Build 0)  -->
<svg version="1.1" id="图层_1" xmlns="http://www.w3.org/2000/svg" xmlns:xlink="http://www.w3.org/1999/xlink" x="0px" y="0px"
	 viewBox="0 0 14 16" style="enable-background:new 0 0 14 16;" xml:space="preserve">
<style type="text/css">
	.st0{fill:#9DACB6;}
</style>
<g>
	<path class="st0" d="M8.1,8.3C7.6,7.8,7.3,7.3,7,6.6c0-0.1,0-0.1,0-0.1c0-0.1,0.3-1.5,0.2-2c0-0.1,0-0.1,0-0.2V4.2
		C7.1,4,6.9,3.8,6.7,3.8H6.5C6.2,3.8,6,4,5.9,4.2c-0.2,0.6,0,1.5,0.3,2.6l0,0.2C6,7.5,5.7,8,5.5,8.5v0.1C5.2,9,5,9.4,4.8,9.8
		L4.6,9.9c-0.1,0.1-0.4,0.2-0.5,0.2c-0.8,0.5-1.2,1-1.3,1.4c0,0.2,0,0.4,0.2,0.5l0.2,0.1c0.1,0.1,0.2,0.1,0.3,0.1
		c0.6,0,1.1-0.6,2-2.1c0.9-0.3,2-0.5,2.9-0.7c0.7,0.4,1.6,0.7,2.2,0.7c0.1,0,0.2,0,0.3,0s0.2-0.1,0.3-0.2c0.1-0.2,0.1-0.4,0.1-0.7
		c0-0.1-0.1-0.2-0.1-0.2l0,0C11,8.8,10.6,8.7,10,8.7H9.8c-0.4,0-0.8,0-1.2,0.1C8.4,8.5,8.2,8.4,8.1,8.3z M3.4,11.6
		c0.1-0.2,0.5-0.8,1-1.2c0,0,0.1-0.1,0.2-0.2C4,11.1,3.6,11.5,3.4,11.6z M6.6,4.2c0.2,0,0.3,0.4,0.3,0.8S6.8,5.7,6.7,5.9
		C6.6,5.5,6.5,5.1,6.5,4.8C6.5,4.8,6.5,4.2,6.6,4.2z M5.6,9.5C5.8,9.3,5.9,9.1,6,8.8c0.3-0.6,0.5-1,0.6-1.4c0.3,0.5,0.6,0.9,1,1.3
		c0.1,0,0.1,0.1,0.2,0.1C7,9,6.3,9.2,5.6,9.5z M9.9,9.1c0.3,0,0.4,0,0.7,0.1s0.3,0.2,0.2,0.3c-0.1,0-0.2,0.1-0.3,0.1
		c-0.3,0-0.7-0.1-1.2-0.4C9.6,9.1,9.8,9.1,9.9,9.1z"/>
	<path class="st0" d="M13,5v9c0,0.6-0.4,1-1,1H2c-0.6,0-1-0.4-1-1V2c0-0.6,0.4-1,1-1h7V0H2C0.9,0,0,0.9,0,2v12c0,1.1,0.9,2,2,2h10
		c1.1,0,2-0.9,2-2V5H13z"/>
	<polygon class="st0" points="10,0 10,4 14,4 	"/>
</g>
</svg>
