<?xml version="1.0" encoding="utf-8"?>
<!-- Generator: Adobe Illustrator 21.0.0, SVG Export Plug-In . SVG Version: 6.00 Build 0)  -->
<svg version="1.1" id="图层_1" xmlns="http://www.w3.org/2000/svg" xmlns:xlink="http://www.w3.org/1999/xlink" x="0px" y="0px"
	 viewBox="0 0 14 16" style="enable-background:new 0 0 14 16;" xml:space="preserve">
<style type="text/css">
	.st0{fill:#9DACB6;}
</style>
<g>
	<path class="st0" d="M13,5.1v9c0,0.6-0.4,1-1,1H2c-0.6,0-1-0.4-1-1V2c0-0.6,0.4-1,1-1h7V0H2C0.9,0,0,0.9,0,2v12c0,1.1,0.9,2,2,2h10
		c1.1,0,2-0.9,2-2V5h-1V5.1z"/>
	<path class="st0" d="M8.1,5C7.7,5,7.4,4.9,7,4.9H4.3v7.2h0.9V9.2H7c1,0,1.7-0.2,2.1-0.6c0.4-0.4,0.6-1,0.6-1.6c0-0.4-0.1-0.7-0.2-1
		C9.4,5.7,9.2,5.5,8.9,5.3C8.6,5.1,8.4,5.1,8.1,5z M8.4,8C8.1,8.2,7.7,8.3,7.1,8.3H5.2V5.8H7c0.4,0,0.5,0,0.9,0.1
		C8.2,6,8.4,6,8.6,6.4C8.8,6.6,8.8,6.7,8.8,7C8.8,7.4,8.6,7.8,8.4,8z"/>
	<polygon class="st0" points="10,0.1 10,4.1 14,4.1 	"/>
</g>
</svg>
