<?xml version="1.0" encoding="utf-8"?>
<!-- Generator: Adobe Illustrator 21.0.0, SVG Export Plug-In . SVG Version: 6.00 Build 0)  -->
<svg version="1.1" id="图层_1" xmlns="http://www.w3.org/2000/svg" xmlns:xlink="http://www.w3.org/1999/xlink" x="0px" y="0px"
	 viewBox="0 0 14 16" style="enable-background:new 0 0 14 16;" xml:space="preserve">
<style type="text/css">
	.st0{fill:#9DACB6;}
</style>
<g>
	<polygon class="st0" points="7.5,11.8 7.5,5.5 9.8,5.5 9.8,4.6 4.2,4.6 4.2,5.5 6.5,5.5 6.5,11.8 	"/>
	<path class="st0" d="M13,5.1v9c0,0.6-0.4,1-1,1H2c-0.6,0-1-0.4-1-1V2c0-0.6,0.4-1,1-1h7V0H2C0.9,0,0,0.9,0,2v12c0,1.1,0.9,2,2,2h10
		c1.1,0,2-0.9,2-2V5L13,5.1L13,5.1z"/>
	<polygon class="st0" points="10,0.1 10,4.1 14,4.1 	"/>
</g>
</svg>
