<?xml version="1.0" encoding="utf-8"?>
<!-- Generator: Adobe Illustrator 22.0.1, SVG Export Plug-In . SVG Version: 6.00 Build 0)  -->
<svg version="1.1" id="图层_1" xmlns="http://www.w3.org/2000/svg" xmlns:xlink="http://www.w3.org/1999/xlink" x="0px" y="0px"
	 viewBox="0 0 70 62" style="enable-background:new 0 0 70 62;" xml:space="preserve">
<style type="text/css">
	.st0{fill:#E7E7E7;}
</style>
<title>无内容</title>
<desc>Created with Sketch.</desc>
<g>
	<path class="st0" d="M69.2,38.7c0,0-0.1-0.1-0.1-0.1c-1.6-2.5-4.2-6.3-7.7-11.5c-0.8-1.5-2.4-2.5-4-2.5H12.6c-1.6,0-3.2,1-4,2.5
		C5,32.4,2.4,36.3,0.6,38.9c0,0.1-0.1,0.2-0.2,0.3c-0.1,0.2-0.2,0.4-0.3,0.6c0,0,0,0,0,0c0,0,0,0,0,0C0.1,40.2,0,40.6,0,41.1V57
		c0,2.3,1.9,4.1,4.2,4.1h61.6c2.3,0,4.2-1.8,4.2-4.1V41.1C70,40.2,69.7,39.4,69.2,38.7z M10.9,27.8L10.9,27.8c0.4-0.7,1-1.1,1.6-1.1
		l45.4,0.2c0.6,0,1.2,0.4,1.5,1l0,0.1l5.8,9H42v1.4c0,3.8-3.1,6.8-7,6.8s-7-3.1-7-6.8V37H4.7L10.9,27.8z M68,57.6
		c0,0.8-0.6,1.4-1.4,1.4H3.4C2.7,59,2,58.4,2,57.6V40.4c0-0.8,0.6-1.4,1.4-1.4H26c0.7,4.6,4.1,8.2,9,8.2s8.3-3.6,9-8.2h22.6
		c0.8,0,1.4,0.6,1.4,1.4V57.6z"/>
	<path class="st0" d="M34.8,12.6c0.6,0,1.2-0.6,1.2-1.4V1.4c0-0.8-0.5-1.4-1.2-1.4s-1.2,0.6-1.2,1.4v9.9
		C33.6,12,34.1,12.6,34.8,12.6z"/>
	<path class="st0" d="M18.4,15.1c0.5,0.6,1.3,0.7,1.8,0.3c0.5-0.4,0.5-1.2,0-1.8l-6.3-7.6c-0.5-0.6-1.3-0.7-1.8-0.3
		c-0.5,0.4-0.5,1.2,0,1.8L18.4,15.1z"/>
	<path class="st0" d="M50.7,14.7l6.7-7.2C58,6.9,58,6.1,57.6,5.7c-0.5-0.4-1.3-0.3-1.8,0.2l-6.7,7.2c-0.5,0.6-0.6,1.4-0.1,1.8
		S50.2,15.2,50.7,14.7z"/>
</g>
</svg>
