<?xml version="1.0" encoding="utf-8"?>
<!-- Generator: Adobe Illustrator 22.0.1, SVG Export Plug-In . SVG Version: 6.00 Build 0)  -->
<svg version="1.1" id="图层_1" xmlns="http://www.w3.org/2000/svg" xmlns:xlink="http://www.w3.org/1999/xlink" x="0px" y="0px"
	 viewBox="0 0 10 10" style="enable-background:new 0 0 10 10;" xml:space="preserve">
<style type="text/css">
	.st0{fill:#33CC75;}
</style>
<title>合并形状</title>
<desc>Created with Sketch.</desc>
<path class="st0" d="M6,5l2.9-2.9c0.3-0.3,0.3-0.8,0-1.1C8.6,0.7,8.1,0.7,7.8,1L4.9,3.9L2,1C1.7,0.7,1.2,0.7,0.9,1s-0.3,0.8,0,1.1
	L3.8,5L0.9,7.9C0.6,8.2,0.6,8.7,0.9,9S1.7,9.3,2,9l2.9-2.9L7.8,9c0.3,0.3,0.8,0.3,1.1,0s0.3-0.8,0-1.1L6,5z"/>
</svg>
