<?xml version="1.0" encoding="utf-8"?>
<!-- Generator: Adobe Illustrator 22.0.1, SVG Export Plug-In . SVG Version: 6.00 Build 0)  -->
<svg version="1.1" id="图层_1" xmlns="http://www.w3.org/2000/svg" xmlns:xlink="http://www.w3.org/1999/xlink" x="0px" y="0px"
	 viewBox="0 0 18 18" style="enable-background:new 0 0 18 18;" xml:space="preserve">
<style type="text/css">
	.st0{fill:#333333;}
</style>
<title>Group 3 Copy</title>
<desc>Created with Sketch.</desc>
<path class="st0" d="M17.7,16.6l-3.1-3.1c1.2-1.4,1.9-3.3,1.9-5.3c0-4.6-3.7-8.2-8.2-8.2S0,3.7,0,8.2s3.7,8.2,8.2,8.2
	c2,0,3.9-0.7,5.3-1.9l3.1,3.1c0.3,0.3,0.7,0.3,1,0S17.9,16.9,17.7,16.6z M1.4,8.2c0-3.8,3.1-6.9,6.9-6.9s6.9,3.1,6.9,6.9
	s-3.1,6.9-6.9,6.9S1.4,12,1.4,8.2z"/>
</svg>
