<?xml version="1.0" encoding="UTF-8"?>
<svg width="17px" height="17px" viewBox="0 0 17 17" version="1.1" xmlns="http://www.w3.org/2000/svg" xmlns:xlink="http://www.w3.org/1999/xlink">
    <!-- Generator: Sketch 52.2 (67145) - http://www.bohemiancoding.com/sketch -->
    <title>关闭</title>
    <desc>Created with Sketch.</desc>
    <g id="Page-1" stroke="none" stroke-width="1" fill="none" fill-rule="evenodd">
        <g id="弹窗" transform="translate(-1619.000000, -1067.000000)" fill="#9D9D9D" fill-rule="nonzero">
            <g id="关闭" transform="translate(1617.000000, 1065.000000)">
                <path d="M2,10.5 C2,5.80560698 5.80558783,2 10.5,2 C15.1944122,2 19,5.80556869 19,10.5 C19,15.1944313 15.1944504,19 10.5,19 C5.80558783,19 2,15.194393 2,10.5 Z M10.5,9.66807436 L8.00422308,7.17229744 C7.77449316,6.94256752 7.40202736,6.94256752 7.17229744,7.17229744 C6.94256752,7.40202736 6.94256752,7.77449316 7.17229744,8.00422308 L9.66807436,10.5 L7.17229744,12.9957769 C6.94256752,13.2255068 6.94256752,13.5979726 7.17229744,13.8277026 C7.40202736,14.0574325 7.77449316,14.0574325 8.00422308,13.8277026 L10.5,11.3319256 L12.9957769,13.8277026 C13.2255068,14.0574325 13.5979726,14.0574325 13.8277026,13.8277026 C14.0574325,13.5979726 14.0574325,13.2255068 13.8277026,12.9957769 L11.3319256,10.5 L13.8277026,8.00422308 C14.0574325,7.77449316 14.0574325,7.40202736 13.8277026,7.17229744 C13.5979726,6.94256752 13.2255068,6.94256752 12.9957769,7.17229744 L10.5,9.66807436 Z" id="Shape"></path>
            </g>
        </g>
    </g>
</svg>