<?xml version="1.0" encoding="utf-8"?>
<!-- Generator: Adobe Illustrator 22.0.1, SVG Export Plug-In . SVG Version: 6.00 Build 0)  -->
<svg version="1.1" id="图层_1" xmlns="http://www.w3.org/2000/svg" xmlns:xlink="http://www.w3.org/1999/xlink" x="0px" y="0px"
	 viewBox="0 0 18 18" style="enable-background:new 0 0 18 18;" xml:space="preserve">
<style type="text/css">
	.st0{fill:#FFFFFF;}
</style>
<title>Shape Copy 21</title>
<desc>Created with Sketch.</desc>
<path class="st0" d="M17.1,15.5L10.7,9l6.5-6.5c0.4-0.5,0.4-1.2,0-1.6c-0.4-0.4-1.2-0.5-1.7,0L9,7.3L2.5,0.8c-0.5-0.5-1.2-0.5-1.7,0
	C0.6,1.1,0.5,1.4,0.5,1.7s0.1,0.6,0.3,0.8L7.3,9l-6.5,6.5c-0.4,0.5-0.4,1.2,0,1.6c0.4,0.4,1.2,0.5,1.7,0L9,10.7l6.5,6.5
	c0.2,0.2,0.5,0.4,0.8,0.4c0.1,0,0.2,0,0.3,0c0.4-0.1,0.7-0.4,0.8-0.8C17.6,16.2,17.4,15.8,17.1,15.5z"/>
</svg>
