<?xml version="1.0" encoding="utf-8"?>
<!-- Generator: Adobe Illustrator 22.0.1, SVG Export Plug-In . SVG Version: 6.00 Build 0)  -->
<svg version="1.1" id="图层_1" xmlns="http://www.w3.org/2000/svg" xmlns:xlink="http://www.w3.org/1999/xlink" x="0px" y="0px"
	 viewBox="0 0 12 12" style="enable-background:new 0 0 12 12;" xml:space="preserve">
<style type="text/css">
	.st0{fill:#333333;}
</style>
<title>编组</title>
<desc>Created with Sketch.</desc>
<g id="Clip-2">
</g>
<path class="st0" d="M10.2,1.8c-2.3-2.3-6.1-2.3-8.5,0c-2.3,2.3-2.3,6.1,0,8.5c2.3,2.3,6.1,2.3,8.5,0C12.6,8,12.6,4.2,10.2,1.8z
	 M2.3,2.4c2-2,5.1-2,7.1-0.2L2.1,9.5C0.3,7.5,0.4,4.4,2.3,2.4z M9.7,9.7c-1.9,1.9-4.9,2-7,0.3L10,2.8C11.7,4.8,11.6,7.8,9.7,9.7z"/>
</svg>
