<?xml version="1.0" encoding="UTF-8"?>
<svg width="40px" height="40px" viewBox="0 0 40 40" version="1.1" xmlns="http://www.w3.org/2000/svg" xmlns:xlink="http://www.w3.org/1999/xlink">
    <!-- Generator: Sketch 61.1 (89650) - https://sketch.com -->
    <title>Group 16 Copy 7</title>
    <desc>Created with Sketch.</desc>
    <g id="页面-1" stroke="none" stroke-width="1" fill="none" fill-rule="evenodd">
        <g id="转码中+无话题" transform="translate(-283.000000, -479.000000)">
            <g id="Group-16-Copy-7" transform="translate(283.000000, 479.000000)">
                <path d="M1,20 C1,30.4949813 9.50573212,39 20,39 C30.4949813,39 39,30.4942679 39,20 C39,9.50501867 30.4942679,1 20,1 C9.50501867,1 1,9.50573212 1,20 Z" id="Rectangle" stroke="#FFFFFF" stroke-width="2" fill="#000000" opacity="0.5"></path>
                <path d="M20.9170539,15.6792028 C21.5241633,14.7580713 22.5093857,14.7594424 23.1155915,15.6792028 L28.7047459,24.1592993 C29.3118553,25.0804308 28.8992938,25.8271554 27.7996916,25.8271554 L16.2329537,25.8271554 C15.1259966,25.8271554 14.7216936,25.0790597 15.3278994,24.1592993 L20.9170539,15.6792028 Z" id="Triangle-3" fill="#FFFFFF" transform="translate(22.016323, 19.919251) rotate(90.000000) translate(-22.016323, -19.919251) "></path>
            </g>
        </g>
    </g>
</svg>