<?xml version="1.0" encoding="utf-8"?>
<!-- Generator: Adobe Illustrator 22.0.1, SVG Export Plug-In . SVG Version: 6.00 Build 0)  -->
<svg version="1.1" id="图层_1" xmlns="http://www.w3.org/2000/svg" xmlns:xlink="http://www.w3.org/1999/xlink" x="0px" y="0px"
	 viewBox="0 0 17 13" style="enable-background:new 0 0 17 13;" xml:space="preserve">
<style type="text/css">
	.st0{clip-path:url(#SVGID_2_);fill:#FC2C3C;}
	.st1{clip-path:url(#SVGID_2_);fill:#FC2D3D;}
	.st2{clip-path:url(#SVGID_2_);fill:#FC2E3E;}
	.st3{clip-path:url(#SVGID_2_);fill:#FC2F3F;}
	.st4{clip-path:url(#SVGID_2_);fill:#FC2F40;}
	.st5{clip-path:url(#SVGID_2_);fill:#FC3041;}
	.st6{clip-path:url(#SVGID_2_);fill:#FC3142;}
	.st7{clip-path:url(#SVGID_2_);fill:#FC3243;}
	.st8{clip-path:url(#SVGID_2_);fill:#FC3344;}
	.st9{clip-path:url(#SVGID_2_);fill:#FC3445;}
	.st10{clip-path:url(#SVGID_2_);fill:#FC3546;}
	.st11{clip-path:url(#SVGID_2_);fill:#FC3547;}
	.st12{clip-path:url(#SVGID_2_);fill:#FC3648;}
	.st13{clip-path:url(#SVGID_2_);fill:#FD3749;}
	.st14{clip-path:url(#SVGID_2_);fill:#FD384A;}
	.st15{clip-path:url(#SVGID_2_);fill:#FD394B;}
	.st16{clip-path:url(#SVGID_2_);fill:#FD3A4C;}
	.st17{clip-path:url(#SVGID_2_);fill:#FD3B4D;}
	.st18{clip-path:url(#SVGID_2_);fill:#FD3B4E;}
	.st19{clip-path:url(#SVGID_2_);fill:#FD3C4F;}
	.st20{clip-path:url(#SVGID_2_);fill:#FD3D50;}
	.st21{clip-path:url(#SVGID_2_);fill:#FD3E51;}
	.st22{clip-path:url(#SVGID_2_);fill:#FD3F52;}
	.st23{clip-path:url(#SVGID_2_);fill:#FD4053;}
	.st24{clip-path:url(#SVGID_2_);fill:#FD4154;}
	.st25{clip-path:url(#SVGID_2_);fill:#FD4256;}
	.st26{clip-path:url(#SVGID_2_);fill:#FD4257;}
	.st27{clip-path:url(#SVGID_2_);fill:#FD4358;}
	.st28{clip-path:url(#SVGID_2_);fill:#FD4459;}
	.st29{clip-path:url(#SVGID_2_);fill:#FD455A;}
	.st30{clip-path:url(#SVGID_2_);fill:#FD465B;}
	.st31{clip-path:url(#SVGID_2_);fill:#FD475C;}
	.st32{clip-path:url(#SVGID_2_);fill:#FD485D;}
	.st33{clip-path:url(#SVGID_2_);fill:#FD485E;}
	.st34{clip-path:url(#SVGID_2_);fill:#FD495F;}
	.st35{clip-path:url(#SVGID_2_);fill:#FD4A60;}
	.st36{clip-path:url(#SVGID_2_);fill:#FD4B61;}
	.st37{clip-path:url(#SVGID_2_);fill:#FD4C62;}
	.st38{clip-path:url(#SVGID_2_);fill:#FE4D63;}
	.st39{clip-path:url(#SVGID_2_);fill:#FE4E64;}
	.st40{clip-path:url(#SVGID_2_);fill:#FE4E65;}
	.st41{clip-path:url(#SVGID_2_);fill:#FE4F66;}
	.st42{clip-path:url(#SVGID_2_);fill:#FE5067;}
	.st43{clip-path:url(#SVGID_2_);fill:#FE5168;}
	.st44{clip-path:url(#SVGID_2_);fill:#FE5269;}
	.st45{clip-path:url(#SVGID_2_);fill:#FE536A;}
	.st46{clip-path:url(#SVGID_2_);fill:#FE546B;}
	.st47{clip-path:url(#SVGID_2_);fill:#FE546C;}
	.st48{clip-path:url(#SVGID_2_);fill:#FE556D;}
	.st49{clip-path:url(#SVGID_2_);fill:#FE566E;}
	.st50{clip-path:url(#SVGID_2_);fill:#FE576F;}
	.st51{fill:#FFFFFF;}
</style>
<title>矩形复制 19</title>
<desc>Created with Sketch.</desc>
<g>
	<g>
		<defs>
			<path id="SVGID_1_" d="M13,0H4C1.8,0,0,1.8,0,4v9h13c2.2,0,4-1.8,4-4V4C17,1.8,15.2,0,13,0z"/>
		</defs>
		<clipPath id="SVGID_2_">
			<use xlink:href="#SVGID_1_"  style="overflow:visible;"/>
		</clipPath>
		<rect class="st0" width="17" height="13"/>
		<path class="st0" d="M16.7,7.4c0,4.4-1.8,8.3-4.6,11.2V14H-1V-1h13.1v-2.8C14.9-0.9,16.7,3.1,16.7,7.4z"/>
		<path class="st1" d="M16.4,7.4c0,4.3-1.7,8.2-4.6,11V14H-1V-1h12.8v-2.5C14.7-0.7,16.4,3.2,16.4,7.4z"/>
		<path class="st2" d="M16.1,7.4c0,4.2-1.7,8-4.5,10.8V14H-1V-1h1.9v-6.8C9.3-7.8,16.1-1,16.1,7.4z"/>
		<path class="st3" d="M15.8,7.4c0,4.1-1.7,7.8-4.4,10.5v-4H-1V-1h1.9v-6.5C9.1-7.5,15.8-0.8,15.8,7.4z"/>
		<path class="st4" d="M15.5,7.4c0,4-1.6,7.7-4.3,10.3V14H-1V-1h1.9v-6.2C8.9-7.2,15.5-0.6,15.5,7.4z"/>
		<path class="st5" d="M15.2,7.4c0,3.9-1.6,7.5-4.2,10.1V14H-1V-1h1.9v-5.9C8.8-6.9,15.2-0.5,15.2,7.4z"/>
		<path class="st6" d="M14.8,7.4c0,3.9-1.6,7.4-4.1,9.9V14H-1V-1h1.9v-5.5C8.6-6.5,14.8-0.3,14.8,7.4z"/>
		<path class="st7" d="M14.5,7.4c0,3.8-1.5,7.2-4,9.7V14H-1V-1h1.9v-5.2C8.4-6.2,14.5-0.1,14.5,7.4z"/>
		<path class="st8" d="M14.2,7.4c0,7.4-6,13.4-13.4,13.4V14H-1V-1h1.9v-4.9C8.2-5.9,14.2,0.1,14.2,7.4z"/>
		<path class="st9" d="M13.9,7.4c0,7.2-5.8,13.1-13.1,13.1V14H-1V-1h1.9v-4.6C8.1-5.6,13.9,0.2,13.9,7.4z"/>
		<path class="st10" d="M13.6,7.4c0,7-5.7,12.7-12.7,12.7V14H-1V-1h1.9v-4.3C7.9-5.3,13.6,0.4,13.6,7.4z"/>
		<path class="st11" d="M13.3,7.4c0,6.9-5.6,12.4-12.4,12.4V14H-1V-1h1.9v-4C7.7-5,13.3,0.6,13.3,7.4z"/>
		<path class="st12" d="M13,7.4c0,6.7-5.4,12.1-12.1,12.1V14H-1V-1h1.9v-3.7C7.6-4.7,13,0.8,13,7.4z"/>
		<path class="st13" d="M12.7,7.4c0,6.5-5.3,11.8-11.8,11.8V14H-1V-0.9h-6.5C-5.4-3-2.4-4.4,0.9-4.4C7.4-4.4,12.7,0.9,12.7,7.4z"/>
		<path class="st14" d="M12.4,7.4c0,6.4-5.1,11.5-11.5,11.5V14H-1V-0.7h-6.3c2.1-2.1,5-3.4,8.1-3.4C7.2-4.1,12.4,1.1,12.4,7.4z"/>
		<path class="st15" d="M12,7.4c0,6.2-5,11.2-11.2,11.2V14H-1V-0.5h-6.1c2-2,4.8-3.3,7.9-3.3C7-3.7,12,1.3,12,7.4z"/>
		<path class="st16" d="M11.7,7.4c0,6-4.9,10.9-10.9,10.9V14H-1V-0.2h-5.8c2-2,4.7-3.2,7.7-3.2C6.9-3.4,11.7,1.4,11.7,7.4z"/>
		<path class="st17" d="M11.4,7.4C11.4,13.3,6.7,18,0.9,18v-4H-1V0h-5.6c1.9-1.9,4.6-3.1,7.5-3.1C6.7-3.1,11.4,1.6,11.4,7.4z"/>
		<path class="st18" d="M11.1,7.4c0,5.7-4.6,10.3-10.3,10.3V14H-1V0.2h-5.4c1.9-1.9,4.4-3,7.3-3C6.5-2.8,11.1,1.8,11.1,7.4z"/>
		<path class="st19" d="M10.8,7.4c0,5.5-4.5,9.9-9.9,9.9V14H-1V0.4h-5.2c1.8-1.8,4.3-2.9,7-2.9C6.3-2.5,10.8,2,10.8,7.4z"/>
		<path class="st20" d="M10.5,7.4c0,5.3-4.3,9.6-9.6,9.6V14H-1V0.6h-5c1.7-1.7,4.2-2.8,6.8-2.8C6.2-2.2,10.5,2.1,10.5,7.4z"/>
		<path class="st21" d="M10.2,7.4c0,5.1-4.2,9.3-9.3,9.3V14H-1V0.9h-4.7c1.7-1.7,4-2.7,6.6-2.7C6-1.9,10.2,2.3,10.2,7.4z"/>
		<path class="st22" d="M9.9,7.4c0,5-4,9-9,9c-2.5,0-4.7-1-6.4-2.6H-1V1.1h-4.5c1.6-1.6,3.9-2.6,6.4-2.6C5.8-1.6,9.9,2.5,9.9,7.4z"
			/>
		<circle class="st23" cx="0.9" cy="7.4" r="8.7"/>
		<circle class="st24" cx="0.9" cy="7.4" r="8.4"/>
		<circle class="st25" cx="0.9" cy="7.4" r="8.1"/>
		<circle class="st26" cx="0.9" cy="7.4" r="7.8"/>
		<circle class="st27" cx="0.9" cy="7.4" r="7.5"/>
		<circle class="st28" cx="0.9" cy="7.4" r="7.1"/>
		<circle class="st29" cx="0.9" cy="7.4" r="6.8"/>
		<circle class="st30" cx="0.9" cy="7.4" r="6.5"/>
		<circle class="st31" cx="0.9" cy="7.4" r="6.2"/>
		<circle class="st32" cx="0.9" cy="7.4" r="5.9"/>
		<circle class="st33" cx="0.9" cy="7.4" r="5.6"/>
		<circle class="st34" cx="0.9" cy="7.4" r="5.3"/>
		<circle class="st35" cx="0.9" cy="7.4" r="5"/>
		<circle class="st36" cx="0.9" cy="7.4" r="4.7"/>
		<circle class="st37" cx="0.9" cy="7.4" r="4.4"/>
		<circle class="st38" cx="0.9" cy="7.4" r="4"/>
		<circle class="st39" cx="0.9" cy="7.4" r="3.7"/>
		<circle class="st40" cx="0.9" cy="7.4" r="3.4"/>
		<circle class="st41" cx="0.9" cy="7.4" r="3.1"/>
		<circle class="st42" cx="0.9" cy="7.4" r="2.8"/>
		<circle class="st43" cx="0.9" cy="7.4" r="2.5"/>
		<circle class="st44" cx="0.9" cy="7.4" r="2.2"/>
		<circle class="st45" cx="0.9" cy="7.4" r="1.9"/>
		<circle class="st46" cx="0.9" cy="7.4" r="1.6"/>
		<circle class="st47" cx="0.9" cy="7.4" r="1.2"/>
		<circle class="st48" cx="0.9" cy="7.4" r="0.9"/>
		<circle class="st49" cx="0.9" cy="7.4" r="0.6"/>
		<circle class="st50" cx="0.9" cy="7.4" r="0.3"/>
	</g>
</g>
<g id="页面-1">
	<g id="选择话题-下拉样式" transform="translate(-523.000000, -556.000000)">
		<g id="编组-17复制" transform="translate(519.000000, 553.000000)">
			<path id="荐" class="st51" d="M14.4,7.6V6.9h2V6.3h-2V5.7h-0.7v0.6h-2.4V5.7h-0.7v0.6h-2v0.6h2v0.6h0.7V6.9h2.4v0.7H14.4z
				 M10.8,13.9v-3.8c0.4-0.4,0.7-0.9,1-1.4h4.7V8.2H12c0.1-0.2,0.2-0.4,0.2-0.6l-0.6-0.1c-0.1,0.2-0.2,0.4-0.3,0.7H8.8v0.6H11
				c-0.6,0.9-1.4,1.7-2.5,2.4l0.4,0.5c0.5-0.3,0.9-0.6,1.2-1v3.2H10.8z M13.8,13.9c0.5,0,0.7-0.2,0.7-0.7v-1.2h2v-0.6h-2V11
				c0.5-0.4,1-0.7,1.4-1V9.4H12V10h3c-0.4,0.3-0.8,0.5-1.1,0.7v0.6h-2.5v0.6h2.5v1c0,0.2-0.1,0.3-0.3,0.3c-0.2,0-0.6,0-1,0l0.2,0.6
				H13.8z"/>
		</g>
	</g>
</g>
</svg>
