<?xml version="1.0" encoding="utf-8"?>
<!-- Generator: Adobe Illustrator 22.0.1, SVG Export Plug-In . SVG Version: 6.00 Build 0)  -->
<svg version="1.1" id="图层_1" xmlns="http://www.w3.org/2000/svg" xmlns:xlink="http://www.w3.org/1999/xlink" x="0px" y="0px"
	 viewBox="0 0 12 13" style="enable-background:new 0 0 12 13;" xml:space="preserve">
<style type="text/css">
	.st0{fill:#333333;}
</style>
<title>分组 2</title>
<desc>Created with Sketch.</desc>
<g id="页面-1">
	<g id="视频上传中" transform="translate(-526.000000, -482.000000)">
		<g>
			<path class="st0" d="M534,486.5c0-0.3-0.2-0.5-0.5-0.5h-3l0.5-2.6c0,0,0,0,0,0c0-0.2-0.1-0.5-0.4-0.5c-0.3,0-0.5,0.1-0.5,0.4
				l-0.5,2.7h-2.1c-0.3,0-0.5,0.2-0.5,0.5s0.2,0.5,0.5,0.5h1.9l-0.5,3c0,0,0,0,0,0h-2.3c-0.3,0-0.6,0.2-0.6,0.5s0.3,0.5,0.6,0.5h2.1
				l-0.5,2.6c0,0,0,0,0,0c0,0.2,0.1,0.5,0.4,0.5c0.3,0,0.5-0.1,0.5-0.4l1.2-6.7h3.1C533.8,487,534,486.8,534,486.5z"/>
			<path class="st0" d="M537.5,486h-2l0.5-2.6c0,0,0,0,0,0c0-0.2-0.1-0.5-0.4-0.5c-0.3,0-0.5,0.1-0.5,0.4l-1.2,6.7h-2.3
				c-0.3,0-0.5,0.2-0.5,0.5s0.2,0.5,0.5,0.5h2.1l-0.5,2.6c0,0,0,0,0,0c0,0.2,0.1,0.5,0.4,0.5c0.3,0,0.5-0.1,0.5-0.4l0.5-2.7h1.9
				c0.3,0,0.5-0.2,0.5-0.5s-0.2-0.5-0.5-0.5h-1.8l0.5-3h2.2c0.3,0,0.5-0.2,0.5-0.5S537.8,486,537.5,486z"/>
		</g>
	</g>
</g>
</svg>
